G04 #@! TF.GenerationSoftware,KiCad,Pcbnew,9.0.8-1.fc43*
G04 #@! TF.CreationDate,2026-05-06T17:31:41+10:00*
G04 #@! TF.ProjectId,beatrice-pcb,62656174-7269-4636-952d-7063622e6b69,rev?*
G04 #@! TF.SameCoordinates,Original*
G04 #@! TF.FileFunction,Copper,L2,Bot*
G04 #@! TF.FilePolarity,Positive*
%FSLAX46Y46*%
G04 Gerber Fmt 4.6, Leading zero omitted, Abs format (unit mm)*
G04 Created by KiCad (PCBNEW 9.0.8-1.fc43) date 2026-05-06 17:31:41*
%MOMM*%
%LPD*%
G01*
G04 APERTURE LIST*
G04 #@! TA.AperFunction,ComponentPad*
%ADD10C,2.000000*%
G04 #@! TD*
G04 #@! TA.AperFunction,ComponentPad*
%ADD11R,1.700000X1.700000*%
G04 #@! TD*
G04 #@! TA.AperFunction,ComponentPad*
%ADD12C,1.700000*%
G04 #@! TD*
G04 #@! TA.AperFunction,ComponentPad*
%ADD13C,4.400000*%
G04 #@! TD*
G04 #@! TA.AperFunction,ViaPad*
%ADD14C,0.600000*%
G04 #@! TD*
G04 APERTURE END LIST*
D10*
G04 #@! TO.P,SW1,1,1*
G04 #@! TO.N,GND*
X155575000Y-100965000D03*
X149075000Y-100965000D03*
G04 #@! TO.P,SW1,2,2*
G04 #@! TO.N,Net-(U1-GPIO3)*
X155575000Y-96465000D03*
X149075000Y-96465000D03*
G04 #@! TD*
D11*
G04 #@! TO.P,J1,1,Pin_1*
G04 #@! TO.N,Net-(J1-Pin_1)*
X210756500Y-73596500D03*
D12*
G04 #@! TO.P,J1,2,Pin_2*
G04 #@! TO.N,GND*
X213296500Y-73596500D03*
G04 #@! TD*
D13*
G04 #@! TO.P,REF\u002A\u002A,1*
G04 #@! TO.N,GND*
X167005000Y-131381500D03*
G04 #@! TD*
G04 #@! TO.P,REF\u002A\u002A,1*
G04 #@! TO.N,GND*
X158750000Y-90106500D03*
G04 #@! TD*
D11*
G04 #@! TO.P,J2,1,Pin_1*
G04 #@! TO.N,Net-(J2-Pin_1)*
X105341500Y-73596500D03*
D12*
G04 #@! TO.P,J2,2,Pin_2*
G04 #@! TO.N,GND*
X107881500Y-73596500D03*
G04 #@! TD*
D13*
G04 #@! TO.P,REF\u002A\u002A,1*
G04 #@! TO.N,GND*
X149225000Y-131381500D03*
G04 #@! TD*
D14*
G04 #@! TO.N,GND*
X160147000Y-126873000D03*
X212661500Y-92646500D03*
X107886500Y-79311500D03*
X163766500Y-88201500D03*
X169100500Y-102235000D03*
X129476500Y-89471500D03*
X166243000Y-126111000D03*
X155600000Y-125400000D03*
X161290000Y-99060000D03*
X149161500Y-93281500D03*
X105346500Y-91376500D03*
X158115000Y-128841500D03*
X157988000Y-125857000D03*
X148700000Y-125500000D03*
X161290000Y-133286500D03*
X149669500Y-113411000D03*
X161925000Y-92710000D03*
X164338000Y-125984000D03*
G04 #@! TD*
G04 #@! TA.AperFunction,Conductor*
G04 #@! TO.N,GND*
G36*
X109869039Y-71576685D02*
G01*
X109914794Y-71629489D01*
X109926000Y-71681000D01*
X109926000Y-86997391D01*
X109960108Y-87124687D01*
X109993054Y-87181750D01*
X110026000Y-87238814D01*
X110119186Y-87332000D01*
X110233314Y-87397892D01*
X110360608Y-87432000D01*
X110360610Y-87432000D01*
X208282390Y-87432000D01*
X208282392Y-87432000D01*
X208409686Y-87397892D01*
X208523814Y-87332000D01*
X208617000Y-87238814D01*
X208682892Y-87124686D01*
X208717000Y-86997392D01*
X208717000Y-72698635D01*
X209406000Y-72698635D01*
X209406000Y-74494370D01*
X209406001Y-74494376D01*
X209412408Y-74553983D01*
X209462702Y-74688828D01*
X209462706Y-74688835D01*
X209548952Y-74804044D01*
X209548955Y-74804047D01*
X209664164Y-74890293D01*
X209664171Y-74890297D01*
X209799017Y-74940591D01*
X209799016Y-74940591D01*
X209805944Y-74941335D01*
X209858627Y-74947000D01*
X211654372Y-74946999D01*
X211713983Y-74940591D01*
X211848831Y-74890296D01*
X211964046Y-74804046D01*
X212050296Y-74688831D01*
X212100591Y-74553983D01*
X212107000Y-74494373D01*
X212106999Y-74470479D01*
X212109830Y-74457463D01*
X212120440Y-74438025D01*
X212126679Y-74416775D01*
X212143303Y-74396143D01*
X212143308Y-74396136D01*
X212143311Y-74396134D01*
X212143318Y-74396126D01*
X212813537Y-73725908D01*
X212830575Y-73789493D01*
X212896401Y-73903507D01*
X212989493Y-73996599D01*
X213103507Y-74062425D01*
X213167090Y-74079462D01*
X212534782Y-74711769D01*
X212534782Y-74711770D01*
X212588949Y-74751124D01*
X212778282Y-74847595D01*
X212980370Y-74913257D01*
X213190254Y-74946500D01*
X213402746Y-74946500D01*
X213612627Y-74913257D01*
X213612630Y-74913257D01*
X213814717Y-74847595D01*
X214004054Y-74751122D01*
X214058216Y-74711770D01*
X214058217Y-74711770D01*
X213425908Y-74079462D01*
X213489493Y-74062425D01*
X213603507Y-73996599D01*
X213696599Y-73903507D01*
X213762425Y-73789493D01*
X213779462Y-73725908D01*
X214411770Y-74358217D01*
X214411770Y-74358216D01*
X214451122Y-74304054D01*
X214547595Y-74114717D01*
X214613257Y-73912630D01*
X214613257Y-73912627D01*
X214646500Y-73702746D01*
X214646500Y-73490253D01*
X214613257Y-73280372D01*
X214613257Y-73280369D01*
X214547595Y-73078282D01*
X214451124Y-72888949D01*
X214411770Y-72834782D01*
X214411769Y-72834782D01*
X213779462Y-73467090D01*
X213762425Y-73403507D01*
X213696599Y-73289493D01*
X213603507Y-73196401D01*
X213489493Y-73130575D01*
X213425909Y-73113537D01*
X214058216Y-72481228D01*
X214004050Y-72441875D01*
X213814717Y-72345404D01*
X213612629Y-72279742D01*
X213402746Y-72246500D01*
X213190254Y-72246500D01*
X212980372Y-72279742D01*
X212980369Y-72279742D01*
X212778282Y-72345404D01*
X212588939Y-72441880D01*
X212534782Y-72481227D01*
X212534782Y-72481228D01*
X213167091Y-73113537D01*
X213103507Y-73130575D01*
X212989493Y-73196401D01*
X212896401Y-73289493D01*
X212830575Y-73403507D01*
X212813537Y-73467091D01*
X212143318Y-72796872D01*
X212109833Y-72735549D01*
X212109830Y-72735536D01*
X212106999Y-72722515D01*
X212106999Y-72698628D01*
X212100591Y-72639017D01*
X212072426Y-72563502D01*
X212050298Y-72504173D01*
X212050293Y-72504164D01*
X211964047Y-72388955D01*
X211964044Y-72388952D01*
X211848835Y-72302706D01*
X211848828Y-72302702D01*
X211713982Y-72252408D01*
X211713983Y-72252408D01*
X211654383Y-72246001D01*
X211654381Y-72246000D01*
X211654373Y-72246000D01*
X211654364Y-72246000D01*
X209858629Y-72246000D01*
X209858623Y-72246001D01*
X209799016Y-72252408D01*
X209664171Y-72302702D01*
X209664164Y-72302706D01*
X209548955Y-72388952D01*
X209548952Y-72388955D01*
X209462706Y-72504164D01*
X209462702Y-72504171D01*
X209412408Y-72639017D01*
X209406001Y-72698616D01*
X209406000Y-72698635D01*
X208717000Y-72698635D01*
X208717000Y-71681000D01*
X208736685Y-71613961D01*
X208789489Y-71568206D01*
X208841000Y-71557000D01*
X215212000Y-71557000D01*
X215279039Y-71576685D01*
X215324794Y-71629489D01*
X215336000Y-71681000D01*
X215336000Y-93927000D01*
X215316315Y-93994039D01*
X215263511Y-94039794D01*
X215212000Y-94051000D01*
X170181988Y-94051000D01*
X170181597Y-94050896D01*
X170116021Y-94051000D01*
X170050591Y-94051000D01*
X170050236Y-94051047D01*
X170050237Y-94051048D01*
X170049816Y-94051104D01*
X170007857Y-94062418D01*
X169986479Y-94068183D01*
X169923311Y-94085108D01*
X169922635Y-94085388D01*
X169922632Y-94085388D01*
X169922585Y-94085407D01*
X169865852Y-94118281D01*
X169865853Y-94118282D01*
X169865831Y-94118295D01*
X169809186Y-94151000D01*
X169808900Y-94151285D01*
X169808551Y-94151488D01*
X169808523Y-94151515D01*
X169808521Y-94151517D01*
X169762484Y-94197701D01*
X169715997Y-94244188D01*
X169715879Y-94244342D01*
X169715613Y-94244689D01*
X169715522Y-94244806D01*
X169683028Y-94301294D01*
X169682930Y-94301463D01*
X169650105Y-94358317D01*
X169650077Y-94358385D01*
X169649980Y-94358621D01*
X169649806Y-94359039D01*
X169649802Y-94359055D01*
X169632971Y-94422268D01*
X169632971Y-94422269D01*
X169615998Y-94485612D01*
X169615947Y-94486001D01*
X169615924Y-94486179D01*
X169615895Y-94486392D01*
X169616000Y-94551923D01*
X169616000Y-94617392D01*
X169616102Y-94617777D01*
X169616116Y-94626179D01*
X169616117Y-94626180D01*
X169678508Y-133931803D01*
X169658930Y-133998874D01*
X169606198Y-134044712D01*
X169554508Y-134056000D01*
X146674500Y-134056000D01*
X146607461Y-134036315D01*
X146561706Y-133983511D01*
X146550500Y-133932000D01*
X146550500Y-106995108D01*
X150248500Y-106995108D01*
X150248500Y-120588891D01*
X150282608Y-120716187D01*
X150315554Y-120773250D01*
X150348500Y-120830314D01*
X150441686Y-120923500D01*
X150555814Y-120989392D01*
X150683108Y-121023500D01*
X150683110Y-121023500D01*
X168213890Y-121023500D01*
X168213892Y-121023500D01*
X168341186Y-120989392D01*
X168455314Y-120923500D01*
X168548500Y-120830314D01*
X168614392Y-120716186D01*
X168648500Y-120588892D01*
X168648500Y-106995108D01*
X168614392Y-106867814D01*
X168548500Y-106753686D01*
X168455314Y-106660500D01*
X168398250Y-106627554D01*
X168341187Y-106594608D01*
X168277539Y-106577554D01*
X168213892Y-106560500D01*
X150814892Y-106560500D01*
X150683108Y-106560500D01*
X150555812Y-106594608D01*
X150441686Y-106660500D01*
X150441683Y-106660502D01*
X150348502Y-106753683D01*
X150348500Y-106753686D01*
X150282608Y-106867812D01*
X150248500Y-106995108D01*
X146550500Y-106995108D01*
X146550500Y-100846947D01*
X147575000Y-100846947D01*
X147575000Y-101083052D01*
X147611934Y-101316247D01*
X147684897Y-101540802D01*
X147792087Y-101751174D01*
X147852338Y-101834104D01*
X147852340Y-101834105D01*
X148551212Y-101135233D01*
X148562482Y-101177292D01*
X148634890Y-101302708D01*
X148737292Y-101405110D01*
X148862708Y-101477518D01*
X148904765Y-101488787D01*
X148205893Y-102187658D01*
X148288828Y-102247914D01*
X148499197Y-102355102D01*
X148723752Y-102428065D01*
X148723751Y-102428065D01*
X148956948Y-102465000D01*
X149193052Y-102465000D01*
X149426247Y-102428065D01*
X149650802Y-102355102D01*
X149861163Y-102247918D01*
X149861169Y-102247914D01*
X149944104Y-102187658D01*
X149944105Y-102187658D01*
X149245233Y-101488787D01*
X149287292Y-101477518D01*
X149412708Y-101405110D01*
X149515110Y-101302708D01*
X149587518Y-101177292D01*
X149598787Y-101135233D01*
X150297658Y-101834105D01*
X150297658Y-101834104D01*
X150357914Y-101751169D01*
X150357918Y-101751163D01*
X150465102Y-101540802D01*
X150538065Y-101316247D01*
X150575000Y-101083052D01*
X150575000Y-100846947D01*
X154075000Y-100846947D01*
X154075000Y-101083052D01*
X154111934Y-101316247D01*
X154184897Y-101540802D01*
X154292087Y-101751174D01*
X154352338Y-101834104D01*
X154352340Y-101834105D01*
X155051212Y-101135233D01*
X155062482Y-101177292D01*
X155134890Y-101302708D01*
X155237292Y-101405110D01*
X155362708Y-101477518D01*
X155404765Y-101488787D01*
X154705893Y-102187658D01*
X154788828Y-102247914D01*
X154999197Y-102355102D01*
X155223752Y-102428065D01*
X155223751Y-102428065D01*
X155456948Y-102465000D01*
X155693052Y-102465000D01*
X155926247Y-102428065D01*
X156150802Y-102355102D01*
X156361163Y-102247918D01*
X156361169Y-102247914D01*
X156444104Y-102187658D01*
X156444105Y-102187658D01*
X155745233Y-101488787D01*
X155787292Y-101477518D01*
X155912708Y-101405110D01*
X156015110Y-101302708D01*
X156087518Y-101177292D01*
X156098787Y-101135234D01*
X156797658Y-101834105D01*
X156797658Y-101834104D01*
X156857914Y-101751169D01*
X156857918Y-101751163D01*
X156965102Y-101540802D01*
X157038065Y-101316247D01*
X157075000Y-101083052D01*
X157075000Y-100846947D01*
X157038065Y-100613752D01*
X156965102Y-100389197D01*
X156857914Y-100178828D01*
X156797658Y-100095894D01*
X156797658Y-100095893D01*
X156098787Y-100794765D01*
X156087518Y-100752708D01*
X156015110Y-100627292D01*
X155912708Y-100524890D01*
X155787292Y-100452482D01*
X155745234Y-100441212D01*
X156444105Y-99742340D01*
X156444104Y-99742338D01*
X156361174Y-99682087D01*
X156150802Y-99574897D01*
X155926247Y-99501934D01*
X155926248Y-99501934D01*
X155693052Y-99465000D01*
X155456948Y-99465000D01*
X155223752Y-99501934D01*
X154999197Y-99574897D01*
X154788830Y-99682084D01*
X154705894Y-99742340D01*
X155404766Y-100441212D01*
X155362708Y-100452482D01*
X155237292Y-100524890D01*
X155134890Y-100627292D01*
X155062482Y-100752708D01*
X155051212Y-100794766D01*
X154352340Y-100095894D01*
X154292084Y-100178830D01*
X154184897Y-100389197D01*
X154111934Y-100613752D01*
X154075000Y-100846947D01*
X150575000Y-100846947D01*
X150538065Y-100613752D01*
X150465102Y-100389197D01*
X150357914Y-100178828D01*
X150297658Y-100095894D01*
X150297658Y-100095893D01*
X149598787Y-100794765D01*
X149587518Y-100752708D01*
X149515110Y-100627292D01*
X149412708Y-100524890D01*
X149287292Y-100452482D01*
X149245234Y-100441212D01*
X149944105Y-99742340D01*
X149944104Y-99742339D01*
X149861174Y-99682087D01*
X149650802Y-99574897D01*
X149426247Y-99501934D01*
X149426248Y-99501934D01*
X149193052Y-99465000D01*
X148956948Y-99465000D01*
X148723752Y-99501934D01*
X148499197Y-99574897D01*
X148288830Y-99682084D01*
X148205894Y-99742340D01*
X148904766Y-100441212D01*
X148862708Y-100452482D01*
X148737292Y-100524890D01*
X148634890Y-100627292D01*
X148562482Y-100752708D01*
X148551212Y-100794766D01*
X147852340Y-100095894D01*
X147792084Y-100178830D01*
X147684897Y-100389197D01*
X147611934Y-100613752D01*
X147575000Y-100846947D01*
X146550500Y-100846947D01*
X146550500Y-96346902D01*
X147574500Y-96346902D01*
X147574500Y-96583097D01*
X147611446Y-96816368D01*
X147684433Y-97040996D01*
X147791657Y-97251433D01*
X147930483Y-97442510D01*
X148097490Y-97609517D01*
X148288567Y-97748343D01*
X148387991Y-97799002D01*
X148499003Y-97855566D01*
X148499005Y-97855566D01*
X148499008Y-97855568D01*
X148619412Y-97894689D01*
X148723631Y-97928553D01*
X148956903Y-97965500D01*
X148956908Y-97965500D01*
X149193097Y-97965500D01*
X149426368Y-97928553D01*
X149650992Y-97855568D01*
X149861433Y-97748343D01*
X150052510Y-97609517D01*
X150219517Y-97442510D01*
X150358343Y-97251433D01*
X150465568Y-97040992D01*
X150538553Y-96816368D01*
X150575500Y-96583097D01*
X150575500Y-96346902D01*
X154074500Y-96346902D01*
X154074500Y-96583097D01*
X154111446Y-96816368D01*
X154184433Y-97040996D01*
X154291657Y-97251433D01*
X154430483Y-97442510D01*
X154597490Y-97609517D01*
X154788567Y-97748343D01*
X154887991Y-97799002D01*
X154999003Y-97855566D01*
X154999005Y-97855566D01*
X154999008Y-97855568D01*
X155119412Y-97894689D01*
X155223631Y-97928553D01*
X155456903Y-97965500D01*
X155456908Y-97965500D01*
X155693097Y-97965500D01*
X155926368Y-97928553D01*
X156150992Y-97855568D01*
X156361433Y-97748343D01*
X156552510Y-97609517D01*
X156719517Y-97442510D01*
X156858343Y-97251433D01*
X156965568Y-97040992D01*
X157038553Y-96816368D01*
X157075500Y-96583097D01*
X157075500Y-96346902D01*
X157038553Y-96113631D01*
X156965566Y-95889003D01*
X156858342Y-95678566D01*
X156719517Y-95487490D01*
X156552510Y-95320483D01*
X156361433Y-95181657D01*
X156150996Y-95074433D01*
X155926368Y-95001446D01*
X155693097Y-94964500D01*
X155693092Y-94964500D01*
X155456908Y-94964500D01*
X155456903Y-94964500D01*
X155223631Y-95001446D01*
X154999003Y-95074433D01*
X154788566Y-95181657D01*
X154679550Y-95260862D01*
X154597490Y-95320483D01*
X154597488Y-95320485D01*
X154597487Y-95320485D01*
X154430485Y-95487487D01*
X154430485Y-95487488D01*
X154430483Y-95487490D01*
X154370862Y-95569550D01*
X154291657Y-95678566D01*
X154184433Y-95889003D01*
X154111446Y-96113631D01*
X154074500Y-96346902D01*
X150575500Y-96346902D01*
X150538553Y-96113631D01*
X150465566Y-95889003D01*
X150358342Y-95678566D01*
X150219517Y-95487490D01*
X150052510Y-95320483D01*
X149861433Y-95181657D01*
X149650996Y-95074433D01*
X149426368Y-95001446D01*
X149193097Y-94964500D01*
X149193092Y-94964500D01*
X148956908Y-94964500D01*
X148956903Y-94964500D01*
X148723631Y-95001446D01*
X148499003Y-95074433D01*
X148288566Y-95181657D01*
X148179550Y-95260862D01*
X148097490Y-95320483D01*
X148097488Y-95320485D01*
X148097487Y-95320485D01*
X147930485Y-95487487D01*
X147930485Y-95487488D01*
X147930483Y-95487490D01*
X147870862Y-95569550D01*
X147791657Y-95678566D01*
X147684433Y-95889003D01*
X147611446Y-96113631D01*
X147574500Y-96346902D01*
X146550500Y-96346902D01*
X146550500Y-94485610D01*
X146550500Y-94485608D01*
X146516392Y-94358314D01*
X146450500Y-94244186D01*
X146357314Y-94151000D01*
X146300250Y-94118054D01*
X146243187Y-94085108D01*
X146179539Y-94068054D01*
X146115892Y-94051000D01*
X146115891Y-94051000D01*
X103431000Y-94051000D01*
X103363961Y-94031315D01*
X103318206Y-93978511D01*
X103307000Y-93927000D01*
X103307000Y-72698635D01*
X103991000Y-72698635D01*
X103991000Y-74494370D01*
X103991001Y-74494376D01*
X103997408Y-74553983D01*
X104047702Y-74688828D01*
X104047706Y-74688835D01*
X104133952Y-74804044D01*
X104133955Y-74804047D01*
X104249164Y-74890293D01*
X104249171Y-74890297D01*
X104384017Y-74940591D01*
X104384016Y-74940591D01*
X104390944Y-74941335D01*
X104443627Y-74947000D01*
X106239372Y-74946999D01*
X106298983Y-74940591D01*
X106433831Y-74890296D01*
X106549046Y-74804046D01*
X106635296Y-74688831D01*
X106685591Y-74553983D01*
X106692000Y-74494373D01*
X106691999Y-74470479D01*
X106694830Y-74457463D01*
X106705440Y-74438025D01*
X106711679Y-74416775D01*
X106728303Y-74396143D01*
X106728308Y-74396136D01*
X106728311Y-74396134D01*
X106728318Y-74396126D01*
X107398537Y-73725908D01*
X107415575Y-73789493D01*
X107481401Y-73903507D01*
X107574493Y-73996599D01*
X107688507Y-74062425D01*
X107752090Y-74079462D01*
X107119782Y-74711769D01*
X107119782Y-74711770D01*
X107173949Y-74751124D01*
X107363282Y-74847595D01*
X107565370Y-74913257D01*
X107775254Y-74946500D01*
X107987746Y-74946500D01*
X108197627Y-74913257D01*
X108197630Y-74913257D01*
X108399717Y-74847595D01*
X108589054Y-74751122D01*
X108643216Y-74711770D01*
X108643217Y-74711770D01*
X108010908Y-74079462D01*
X108074493Y-74062425D01*
X108188507Y-73996599D01*
X108281599Y-73903507D01*
X108347425Y-73789493D01*
X108364462Y-73725909D01*
X108996770Y-74358217D01*
X108996770Y-74358216D01*
X109036122Y-74304054D01*
X109132595Y-74114717D01*
X109198257Y-73912630D01*
X109198257Y-73912627D01*
X109231500Y-73702746D01*
X109231500Y-73490253D01*
X109198257Y-73280372D01*
X109198257Y-73280369D01*
X109132595Y-73078282D01*
X109036124Y-72888949D01*
X108996770Y-72834782D01*
X108996769Y-72834782D01*
X108364462Y-73467090D01*
X108347425Y-73403507D01*
X108281599Y-73289493D01*
X108188507Y-73196401D01*
X108074493Y-73130575D01*
X108010909Y-73113537D01*
X108643216Y-72481228D01*
X108589050Y-72441875D01*
X108399717Y-72345404D01*
X108197629Y-72279742D01*
X107987746Y-72246500D01*
X107775254Y-72246500D01*
X107565372Y-72279742D01*
X107565369Y-72279742D01*
X107363282Y-72345404D01*
X107173939Y-72441880D01*
X107119782Y-72481227D01*
X107119782Y-72481228D01*
X107752091Y-73113537D01*
X107688507Y-73130575D01*
X107574493Y-73196401D01*
X107481401Y-73289493D01*
X107415575Y-73403507D01*
X107398537Y-73467091D01*
X106728318Y-72796872D01*
X106694833Y-72735549D01*
X106694830Y-72735536D01*
X106691999Y-72722515D01*
X106691999Y-72698628D01*
X106685591Y-72639017D01*
X106657426Y-72563502D01*
X106635298Y-72504173D01*
X106635293Y-72504164D01*
X106549047Y-72388955D01*
X106549044Y-72388952D01*
X106433835Y-72302706D01*
X106433828Y-72302702D01*
X106298982Y-72252408D01*
X106298983Y-72252408D01*
X106239383Y-72246001D01*
X106239381Y-72246000D01*
X106239373Y-72246000D01*
X106239364Y-72246000D01*
X104443629Y-72246000D01*
X104443623Y-72246001D01*
X104384016Y-72252408D01*
X104249171Y-72302702D01*
X104249164Y-72302706D01*
X104133955Y-72388952D01*
X104133952Y-72388955D01*
X104047706Y-72504164D01*
X104047702Y-72504171D01*
X103997408Y-72639017D01*
X103991001Y-72698616D01*
X103991000Y-72698635D01*
X103307000Y-72698635D01*
X103307000Y-71681000D01*
X103326685Y-71613961D01*
X103379489Y-71568206D01*
X103431000Y-71557000D01*
X109802000Y-71557000D01*
X109869039Y-71576685D01*
G37*
G04 #@! TD.AperFunction*
G04 #@! TD*
M02*
