G04 #@! TF.GenerationSoftware,KiCad,Pcbnew,9.0.8-1.fc43*
G04 #@! TF.CreationDate,2026-05-06T17:31:41+10:00*
G04 #@! TF.ProjectId,beatrice-pcb,62656174-7269-4636-952d-7063622e6b69,rev?*
G04 #@! TF.SameCoordinates,Original*
G04 #@! TF.FileFunction,Copper,L1,Top*
G04 #@! TF.FilePolarity,Positive*
%FSLAX46Y46*%
G04 Gerber Fmt 4.6, Leading zero omitted, Abs format (unit mm)*
G04 Created by KiCad (PCBNEW 9.0.8-1.fc43) date 2026-05-06 17:31:41*
%MOMM*%
%LPD*%
G01*
G04 APERTURE LIST*
G04 Aperture macros list*
%AMRoundRect*
0 Rectangle with rounded corners*
0 $1 Rounding radius*
0 $2 $3 $4 $5 $6 $7 $8 $9 X,Y pos of 4 corners*
0 Add a 4 corners polygon primitive as box body*
4,1,4,$2,$3,$4,$5,$6,$7,$8,$9,$2,$3,0*
0 Add four circle primitives for the rounded corners*
1,1,$1+$1,$2,$3*
1,1,$1+$1,$4,$5*
1,1,$1+$1,$6,$7*
1,1,$1+$1,$8,$9*
0 Add four rect primitives between the rounded corners*
20,1,$1+$1,$2,$3,$4,$5,0*
20,1,$1+$1,$4,$5,$6,$7,0*
20,1,$1+$1,$6,$7,$8,$9,0*
20,1,$1+$1,$8,$9,$2,$3,0*%
G04 Aperture macros list end*
G04 #@! TA.AperFunction,EtchedComponent*
%ADD10C,0.150000*%
G04 #@! TD*
G04 #@! TA.AperFunction,SMDPad,CuDef*
%ADD11RoundRect,0.078300X0.182700X-0.221700X0.182700X0.221700X-0.182700X0.221700X-0.182700X-0.221700X0*%
G04 #@! TD*
G04 #@! TA.AperFunction,SMDPad,CuDef*
%ADD12RoundRect,0.045000X0.105000X-0.105000X0.105000X0.105000X-0.105000X0.105000X-0.105000X-0.105000X0*%
G04 #@! TD*
G04 #@! TA.AperFunction,ComponentPad*
%ADD13C,2.000000*%
G04 #@! TD*
G04 #@! TA.AperFunction,SMDPad,CuDef*
%ADD14RoundRect,0.150000X0.512500X0.150000X-0.512500X0.150000X-0.512500X-0.150000X0.512500X-0.150000X0*%
G04 #@! TD*
G04 #@! TA.AperFunction,ComponentPad*
%ADD15R,1.700000X1.700000*%
G04 #@! TD*
G04 #@! TA.AperFunction,ComponentPad*
%ADD16C,1.700000*%
G04 #@! TD*
G04 #@! TA.AperFunction,ComponentPad*
%ADD17C,4.400000*%
G04 #@! TD*
G04 #@! TA.AperFunction,SMDPad,CuDef*
%ADD18RoundRect,0.225000X-0.250000X0.225000X-0.250000X-0.225000X0.250000X-0.225000X0.250000X0.225000X0*%
G04 #@! TD*
G04 #@! TA.AperFunction,SMDPad,CuDef*
%ADD19RoundRect,0.225000X0.250000X-0.225000X0.250000X0.225000X-0.250000X0.225000X-0.250000X-0.225000X0*%
G04 #@! TD*
G04 #@! TA.AperFunction,SMDPad,CuDef*
%ADD20RoundRect,0.240000X-0.560000X0.760000X-0.560000X-0.760000X0.560000X-0.760000X0.560000X0.760000X0*%
G04 #@! TD*
G04 #@! TA.AperFunction,SMDPad,CuDef*
%ADD21RoundRect,0.225000X-0.225000X-0.250000X0.225000X-0.250000X0.225000X0.250000X-0.225000X0.250000X0*%
G04 #@! TD*
G04 #@! TA.AperFunction,ViaPad*
%ADD22C,0.600000*%
G04 #@! TD*
G04 #@! TA.AperFunction,Conductor*
%ADD23C,0.200000*%
G04 #@! TD*
G04 APERTURE END LIST*
D10*
G04 #@! TO.C,T1*
X154197500Y-128800000D02*
G75*
G02*
X152872500Y-128800000I-662500J0D01*
G01*
X152872500Y-128800000D02*
G75*
G02*
X154197500Y-128800000I662500J0D01*
G01*
G04 #@! TD*
D11*
G04 #@! TO.P,T1,1,WS*
G04 #@! TO.N,Net-(T1-WS)*
X155607000Y-127900000D03*
G04 #@! TO.P,T1,2,LR*
G04 #@! TO.N,GND*
X154787000Y-127900000D03*
D12*
G04 #@! TO.P,T1,4,WAKE*
X152770000Y-127750000D03*
G04 #@! TO.P,T1,5,THSEL*
G04 #@! TO.N,unconnected-(T1-THSEL-Pad5)*
X152770000Y-129850000D03*
D11*
G04 #@! TO.P,T1,6,SCK*
G04 #@! TO.N,Net-(T1-SCK)*
X154787000Y-129700000D03*
G04 #@! TO.P,T1,7,VDD*
G04 #@! TO.N,Net-(T1-VDD)*
X155607000Y-129700000D03*
G04 #@! TO.P,T1,8,SD*
G04 #@! TO.N,Net-(T1-SD)*
X155607000Y-128800000D03*
G04 #@! TD*
D13*
G04 #@! TO.P,SW1,1,1*
G04 #@! TO.N,GND*
X155575000Y-100965000D03*
X149075000Y-100965000D03*
G04 #@! TO.P,SW1,2,2*
G04 #@! TO.N,Net-(U1-GPIO3)*
X155575000Y-96465000D03*
X149075000Y-96465000D03*
G04 #@! TD*
D14*
G04 #@! TO.P,U2,1,IN*
G04 #@! TO.N,Net-(U1-3v3)*
X161925000Y-130302000D03*
G04 #@! TO.P,U2,2,GND*
G04 #@! TO.N,GND*
X161925000Y-129352000D03*
G04 #@! TO.P,U2,3,EN*
G04 #@! TO.N,Net-(U1-3v3)*
X161925000Y-128402000D03*
G04 #@! TO.P,U2,4,NC*
G04 #@! TO.N,unconnected-(U2-NC-Pad4)*
X159650000Y-128402000D03*
G04 #@! TO.P,U2,5,OUT*
G04 #@! TO.N,Net-(T1-VDD)*
X159650000Y-130302000D03*
G04 #@! TD*
D15*
G04 #@! TO.P,J1,1,Pin_1*
G04 #@! TO.N,Net-(J1-Pin_1)*
X210756500Y-73596500D03*
D16*
G04 #@! TO.P,J1,2,Pin_2*
G04 #@! TO.N,GND*
X213296500Y-73596500D03*
G04 #@! TD*
D17*
G04 #@! TO.P,REF\u002A\u002A,1*
G04 #@! TO.N,GND*
X167005000Y-131381500D03*
G04 #@! TD*
G04 #@! TO.P,REF\u002A\u002A,1*
G04 #@! TO.N,GND*
X158750000Y-90106500D03*
G04 #@! TD*
D15*
G04 #@! TO.P,J2,1,Pin_1*
G04 #@! TO.N,Net-(J2-Pin_1)*
X105341500Y-73596500D03*
D16*
G04 #@! TO.P,J2,2,Pin_2*
G04 #@! TO.N,GND*
X107881500Y-73596500D03*
G04 #@! TD*
D18*
G04 #@! TO.P,C2,1*
G04 #@! TO.N,Net-(T1-VDD)*
X157866500Y-130355000D03*
G04 #@! TO.P,C2,2*
G04 #@! TO.N,GND*
X157866500Y-131905000D03*
G04 #@! TD*
D19*
G04 #@! TO.P,C1,1*
G04 #@! TO.N,GND*
X156000000Y-132775000D03*
G04 #@! TO.P,C1,2*
G04 #@! TO.N,Net-(T1-VDD)*
X156000000Y-131225000D03*
G04 #@! TD*
D17*
G04 #@! TO.P,REF\u002A\u002A,1*
G04 #@! TO.N,GND*
X149225000Y-131381500D03*
G04 #@! TD*
D20*
G04 #@! TO.P,U1,1,GPIO1*
G04 #@! TO.N,Net-(J1-Pin_1)*
X167005000Y-104775000D03*
G04 #@! TO.P,U1,2,GPIO2*
G04 #@! TO.N,Net-(J2-Pin_1)*
X164465000Y-104775000D03*
G04 #@! TO.P,U1,3,GPIO3*
G04 #@! TO.N,Net-(U1-GPIO3)*
X161925000Y-104775000D03*
G04 #@! TO.P,U1,4,GPIO4*
G04 #@! TO.N,unconnected-(U1-GPIO4-Pad4)*
X159385000Y-104775000D03*
G04 #@! TO.P,U1,5,GPIO5*
G04 #@! TO.N,unconnected-(U1-GPIO5-Pad5)*
X156845000Y-104775000D03*
G04 #@! TO.P,U1,6,GPIO6*
G04 #@! TO.N,unconnected-(U1-GPIO6-Pad6)*
X154305000Y-104775000D03*
G04 #@! TO.P,U1,7,GPIO43*
G04 #@! TO.N,unconnected-(U1-GPIO43-Pad7)*
X151765000Y-104775000D03*
G04 #@! TO.P,U1,8,5V*
G04 #@! TO.N,unconnected-(U1-5V-Pad8)*
X167005000Y-122555000D03*
G04 #@! TO.P,U1,9,GND*
G04 #@! TO.N,GND*
X164465000Y-122555000D03*
G04 #@! TO.P,U1,10,3v3*
G04 #@! TO.N,Net-(U1-3v3)*
X161925000Y-122555000D03*
G04 #@! TO.P,U1,11,GPIO9*
G04 #@! TO.N,Net-(T1-SD)*
X159385000Y-122555000D03*
G04 #@! TO.P,U1,12,GPIO8*
G04 #@! TO.N,Net-(T1-WS)*
X156845000Y-122555000D03*
G04 #@! TO.P,U1,13,GPIO7*
G04 #@! TO.N,Net-(T1-SCK)*
X154305000Y-122555000D03*
G04 #@! TO.P,U1,14,GPIO44*
G04 #@! TO.N,unconnected-(U1-GPIO44-Pad14)*
X151765000Y-122555000D03*
G04 #@! TD*
D21*
G04 #@! TO.P,C3,1*
G04 #@! TO.N,Net-(U1-3v3)*
X161912000Y-131831000D03*
G04 #@! TO.P,C3,2*
G04 #@! TO.N,GND*
X163462000Y-131831000D03*
G04 #@! TD*
D22*
G04 #@! TO.N,GND*
X160147000Y-126873000D03*
X212661500Y-92646500D03*
X107886500Y-79311500D03*
X163766500Y-88201500D03*
X169100500Y-102235000D03*
X129476500Y-89471500D03*
X166243000Y-126111000D03*
X155600000Y-125400000D03*
X161290000Y-99060000D03*
X149161500Y-93281500D03*
X105346500Y-91376500D03*
X158115000Y-128841500D03*
X157988000Y-125857000D03*
X148700000Y-125500000D03*
X161290000Y-133286500D03*
X149669500Y-113411000D03*
X161925000Y-92710000D03*
X164338000Y-125984000D03*
G04 #@! TD*
D23*
G04 #@! TO.N,Net-(T1-VDD)*
X157866500Y-130355000D02*
X157794500Y-130283000D01*
X159650000Y-130302000D02*
X157919500Y-130302000D01*
X157794500Y-130283000D02*
X156565000Y-130283000D01*
X156000000Y-130900000D02*
X156000000Y-131225000D01*
X155982000Y-129700000D02*
X155607000Y-129700000D01*
X157919500Y-130302000D02*
X157866500Y-130355000D01*
X156565000Y-130335000D02*
X156000000Y-130900000D01*
X156565000Y-130283000D02*
X156565000Y-130335000D01*
X156565000Y-130283000D02*
X155982000Y-129700000D01*
G04 #@! TO.N,Net-(U1-3v3)*
X161912000Y-130315000D02*
X161925000Y-130302000D01*
X161262501Y-128402000D02*
X161925000Y-128402000D01*
X161912000Y-131831000D02*
X161912000Y-130315000D01*
X161570532Y-130302000D02*
X160961500Y-129692968D01*
X161925000Y-130302000D02*
X161570532Y-130302000D01*
X161925000Y-122555000D02*
X161925000Y-128402000D01*
X160961500Y-129692968D02*
X160961500Y-128703001D01*
X160961500Y-128703001D02*
X161262501Y-128402000D01*
G04 #@! TO.N,Net-(T1-SCK)*
X154001000Y-130486000D02*
X154787000Y-129700000D01*
X151000000Y-129447283D02*
X152038717Y-130486000D01*
X154305000Y-122555000D02*
X151000000Y-125860000D01*
X152038717Y-130486000D02*
X154001000Y-130486000D01*
X151000000Y-125860000D02*
X151000000Y-129447283D01*
G04 #@! TO.N,Net-(T1-SD)*
X156500000Y-128800000D02*
X159385000Y-125915000D01*
X159131000Y-122555000D02*
X159385000Y-122555000D01*
X155607000Y-128800000D02*
X156500000Y-128800000D01*
X159385000Y-125915000D02*
X159385000Y-122555000D01*
G04 #@! TO.N,Net-(T1-WS)*
X156845000Y-127455000D02*
X156400000Y-127900000D01*
X156845000Y-122555000D02*
X156845000Y-127455000D01*
X156400000Y-127900000D02*
X155607000Y-127900000D01*
G04 #@! TO.N,Net-(J1-Pin_1)*
X167005000Y-93345000D02*
X167005000Y-104775000D01*
X169608500Y-90741500D02*
X208216500Y-90741500D01*
X210756500Y-88201500D02*
X210756500Y-73596500D01*
X167005000Y-93345000D02*
X169608500Y-90741500D01*
X208216500Y-90741500D02*
X210756500Y-88201500D01*
G04 #@! TO.N,Net-(J2-Pin_1)*
X111696500Y-90741500D02*
X154559000Y-90741500D01*
X105341500Y-84386500D02*
X111696500Y-90741500D01*
X164465000Y-100647500D02*
X164465000Y-104775000D01*
X154559000Y-90741500D02*
X164465000Y-100647500D01*
X105341500Y-73596500D02*
X105341500Y-84386500D01*
G04 #@! TO.N,Net-(U1-GPIO3)*
X161925000Y-100965000D02*
X157425000Y-96465000D01*
X161925000Y-104775000D02*
X161925000Y-100965000D01*
X157425000Y-96465000D02*
X155575000Y-96465000D01*
G04 #@! TD*
G04 #@! TA.AperFunction,Conductor*
G04 #@! TO.N,GND*
G36*
X158519988Y-127731759D02*
G01*
X158575921Y-127773631D01*
X158600338Y-127839095D01*
X158585486Y-127907368D01*
X158583387Y-127911061D01*
X158535754Y-127991605D01*
X158535754Y-127991606D01*
X158489902Y-128149426D01*
X158489901Y-128149432D01*
X158487000Y-128186298D01*
X158487000Y-128617701D01*
X158489901Y-128654567D01*
X158489902Y-128654573D01*
X158535754Y-128812393D01*
X158535755Y-128812396D01*
X158619417Y-128953862D01*
X158619423Y-128953870D01*
X158735629Y-129070076D01*
X158735633Y-129070079D01*
X158735635Y-129070081D01*
X158877102Y-129153744D01*
X158893476Y-129158501D01*
X159034926Y-129199597D01*
X159034929Y-129199597D01*
X159034931Y-129199598D01*
X159071806Y-129202500D01*
X159071814Y-129202500D01*
X160228186Y-129202500D01*
X160228194Y-129202500D01*
X160228201Y-129202499D01*
X160230632Y-129202404D01*
X160230667Y-129203297D01*
X160240858Y-129205434D01*
X160254647Y-129203452D01*
X160274379Y-129212463D01*
X160295608Y-129216915D01*
X160305530Y-129226689D01*
X160318203Y-129232477D01*
X160329931Y-129250726D01*
X160345383Y-129265948D01*
X160349216Y-129280735D01*
X160355977Y-129291255D01*
X160361000Y-129326190D01*
X160361000Y-129377809D01*
X160341315Y-129444848D01*
X160288511Y-129490603D01*
X160230661Y-129500836D01*
X160230632Y-129501596D01*
X160228201Y-129501500D01*
X160228194Y-129501500D01*
X159071806Y-129501500D01*
X159071798Y-129501500D01*
X159034932Y-129504401D01*
X159034926Y-129504402D01*
X158877106Y-129550254D01*
X158877105Y-129550254D01*
X158762369Y-129618108D01*
X158694645Y-129635290D01*
X158628383Y-129613129D01*
X158611568Y-129599056D01*
X158569544Y-129557032D01*
X158569540Y-129557029D01*
X158425205Y-129468001D01*
X158425199Y-129467998D01*
X158425197Y-129467997D01*
X158367801Y-129448978D01*
X158264209Y-129414651D01*
X158164846Y-129404500D01*
X157568162Y-129404500D01*
X157568144Y-129404501D01*
X157468792Y-129414650D01*
X157468789Y-129414651D01*
X157307805Y-129467996D01*
X157307794Y-129468001D01*
X157163459Y-129557029D01*
X157074306Y-129646182D01*
X157047375Y-129660886D01*
X157021560Y-129677477D01*
X157015357Y-129678368D01*
X157012982Y-129679666D01*
X156986625Y-129682500D01*
X156865098Y-129682500D01*
X156798059Y-129662815D01*
X156777421Y-129646185D01*
X156692613Y-129561377D01*
X156659130Y-129500058D01*
X156664114Y-129430366D01*
X156705985Y-129374432D01*
X156724792Y-129363724D01*
X156724745Y-129363642D01*
X156745740Y-129351519D01*
X156811424Y-129313597D01*
X156868716Y-129280520D01*
X156980520Y-129168716D01*
X156980520Y-129168714D01*
X156990724Y-129158511D01*
X156990728Y-129158506D01*
X158388975Y-127760258D01*
X158450296Y-127726775D01*
X158519988Y-127731759D01*
G37*
G04 #@! TD.AperFunction*
G04 #@! TA.AperFunction,Conductor*
G36*
X155592555Y-123688559D02*
G01*
X155594917Y-123688264D01*
X155624419Y-123702403D01*
X155654454Y-123715453D01*
X155656446Y-123717753D01*
X155657924Y-123718461D01*
X155680539Y-123745558D01*
X155700185Y-123777410D01*
X155822588Y-123899813D01*
X155822592Y-123899816D01*
X155969912Y-123990685D01*
X155969915Y-123990686D01*
X155969921Y-123990690D01*
X156078821Y-124026775D01*
X156134241Y-124045140D01*
X156140856Y-124046556D01*
X156140534Y-124048058D01*
X156197779Y-124071406D01*
X156237939Y-124128580D01*
X156244500Y-124168380D01*
X156244500Y-127054617D01*
X156224815Y-127121656D01*
X156172011Y-127167411D01*
X156102853Y-127177355D01*
X156073047Y-127169178D01*
X155940797Y-127114398D01*
X155940795Y-127114397D01*
X155827635Y-127099500D01*
X155827634Y-127099500D01*
X155386366Y-127099500D01*
X155386365Y-127099500D01*
X155273205Y-127114397D01*
X155273203Y-127114398D01*
X155243797Y-127126578D01*
X155174329Y-127134046D01*
X155148895Y-127126577D01*
X155120670Y-127114886D01*
X155120666Y-127114885D01*
X155037000Y-127103869D01*
X155037000Y-127190163D01*
X155017315Y-127257202D01*
X155011376Y-127265649D01*
X154918719Y-127386402D01*
X154860398Y-127527202D01*
X154860397Y-127527204D01*
X154845500Y-127640365D01*
X154845500Y-127776000D01*
X154842949Y-127784685D01*
X154844238Y-127793647D01*
X154833259Y-127817687D01*
X154825815Y-127843039D01*
X154818974Y-127848966D01*
X154815213Y-127857203D01*
X154792978Y-127871492D01*
X154773011Y-127888794D01*
X154762496Y-127891081D01*
X154756435Y-127894977D01*
X154721500Y-127900000D01*
X154661000Y-127900000D01*
X154593961Y-127880315D01*
X154548206Y-127827511D01*
X154537000Y-127776000D01*
X154537000Y-127103869D01*
X154453333Y-127114885D01*
X154453329Y-127114886D01*
X154312659Y-127173153D01*
X154312653Y-127173156D01*
X154191852Y-127265851D01*
X154191851Y-127265852D01*
X154099156Y-127386653D01*
X154099153Y-127386659D01*
X154037775Y-127534841D01*
X154036136Y-127534162D01*
X154004971Y-127585278D01*
X153942120Y-127615800D01*
X153883254Y-127611445D01*
X153824899Y-127592484D01*
X153824896Y-127592483D01*
X153676389Y-127568962D01*
X153632433Y-127562000D01*
X153512509Y-127562000D01*
X153445470Y-127542315D01*
X153399715Y-127489511D01*
X153397154Y-127483490D01*
X153354520Y-127375377D01*
X153263996Y-127256003D01*
X153144622Y-127165479D01*
X153005248Y-127110517D01*
X152920000Y-127100279D01*
X152920000Y-127626000D01*
X152917449Y-127634685D01*
X152918738Y-127643647D01*
X152907759Y-127667687D01*
X152900315Y-127693039D01*
X152893474Y-127698966D01*
X152889713Y-127707203D01*
X152867478Y-127721492D01*
X152847511Y-127738794D01*
X152836996Y-127741081D01*
X152830935Y-127744977D01*
X152796000Y-127750000D01*
X152770000Y-127750000D01*
X152770000Y-127763095D01*
X152750315Y-127830134D01*
X152731442Y-127851762D01*
X152731942Y-127852262D01*
X152720523Y-127863681D01*
X152659200Y-127897166D01*
X152632842Y-127900000D01*
X152120281Y-127900000D01*
X152130517Y-127985247D01*
X152185479Y-128124622D01*
X152276003Y-128243996D01*
X152316426Y-128274649D01*
X152357949Y-128330841D01*
X152362501Y-128400562D01*
X152359432Y-128411770D01*
X152327484Y-128510097D01*
X152297000Y-128702567D01*
X152297000Y-128783027D01*
X152297000Y-128897433D01*
X152302839Y-128934300D01*
X152327484Y-129089900D01*
X152327484Y-129089903D01*
X152359268Y-129187723D01*
X152361263Y-129257564D01*
X152325182Y-129317397D01*
X152316265Y-129324842D01*
X152275648Y-129355644D01*
X152275646Y-129355646D01*
X152185039Y-129475128D01*
X152185038Y-129475131D01*
X152174902Y-129500836D01*
X152167298Y-129520118D01*
X152124392Y-129575262D01*
X152058484Y-129598455D01*
X151990499Y-129582334D01*
X151964262Y-129562309D01*
X151636819Y-129234866D01*
X151603334Y-129173543D01*
X151600500Y-129147185D01*
X151600500Y-127600000D01*
X152120279Y-127600000D01*
X152620000Y-127600000D01*
X152620000Y-127100281D01*
X152534752Y-127110517D01*
X152395377Y-127165479D01*
X152276003Y-127256003D01*
X152185479Y-127375377D01*
X152130517Y-127514751D01*
X152130517Y-127514752D01*
X152120279Y-127600000D01*
X151600500Y-127600000D01*
X151600500Y-126160096D01*
X151620185Y-126093057D01*
X151636814Y-126072420D01*
X153617417Y-124091816D01*
X153678738Y-124058333D01*
X153705086Y-124055499D01*
X154914342Y-124055499D01*
X155015761Y-124045139D01*
X155180079Y-123990690D01*
X155327411Y-123899814D01*
X155449814Y-123777411D01*
X155469461Y-123745557D01*
X155471230Y-123743966D01*
X155471944Y-123741694D01*
X155497081Y-123720714D01*
X155521409Y-123698833D01*
X155523757Y-123698450D01*
X155525586Y-123696925D01*
X155558062Y-123692867D01*
X155590371Y-123687610D01*
X155592555Y-123688559D01*
G37*
G04 #@! TD.AperFunction*
G04 #@! TA.AperFunction,Conductor*
G36*
X160734454Y-123715453D02*
G01*
X160760539Y-123745558D01*
X160780185Y-123777410D01*
X160902588Y-123899813D01*
X160902592Y-123899816D01*
X161049912Y-123990685D01*
X161049915Y-123990686D01*
X161049921Y-123990690D01*
X161158821Y-124026775D01*
X161214241Y-124045140D01*
X161220856Y-124046556D01*
X161220534Y-124048058D01*
X161277779Y-124071406D01*
X161317939Y-124128580D01*
X161324500Y-124168380D01*
X161324500Y-127507067D01*
X161304815Y-127574106D01*
X161252011Y-127619861D01*
X161235096Y-127626143D01*
X161152104Y-127650254D01*
X161152103Y-127650255D01*
X161010637Y-127733917D01*
X161010629Y-127733923D01*
X160894423Y-127850129D01*
X160894411Y-127850145D01*
X160894221Y-127850467D01*
X160894006Y-127850667D01*
X160889639Y-127856298D01*
X160888729Y-127855592D01*
X160843145Y-127898142D01*
X160774401Y-127910635D01*
X160709816Y-127883980D01*
X160685644Y-127856078D01*
X160685361Y-127856298D01*
X160681310Y-127851076D01*
X160680765Y-127850446D01*
X160680581Y-127850135D01*
X160680580Y-127850134D01*
X160680579Y-127850132D01*
X160564370Y-127733923D01*
X160564362Y-127733917D01*
X160422896Y-127650255D01*
X160422893Y-127650254D01*
X160265073Y-127604402D01*
X160265067Y-127604401D01*
X160228201Y-127601500D01*
X160228194Y-127601500D01*
X159071806Y-127601500D01*
X159071798Y-127601500D01*
X159034932Y-127604401D01*
X159034926Y-127604402D01*
X158877106Y-127650254D01*
X158877105Y-127650254D01*
X158796561Y-127697887D01*
X158728837Y-127715068D01*
X158662574Y-127692908D01*
X158618812Y-127638442D01*
X158611443Y-127568962D01*
X158642808Y-127506528D01*
X158645731Y-127503502D01*
X159753713Y-126395521D01*
X159753716Y-126395520D01*
X159865520Y-126283716D01*
X159915639Y-126196904D01*
X159944577Y-126146785D01*
X159985500Y-125994057D01*
X159985500Y-125835943D01*
X159985500Y-124168380D01*
X160005185Y-124101341D01*
X160057989Y-124055586D01*
X160089261Y-124047097D01*
X160089145Y-124046555D01*
X160095755Y-124045139D01*
X160095761Y-124045139D01*
X160260079Y-123990690D01*
X160407411Y-123899814D01*
X160529814Y-123777411D01*
X160549461Y-123745557D01*
X160601409Y-123698833D01*
X160670371Y-123687610D01*
X160734454Y-123715453D01*
G37*
G04 #@! TD.AperFunction*
G04 #@! TA.AperFunction,Conductor*
G36*
X158194454Y-123715453D02*
G01*
X158220539Y-123745558D01*
X158240185Y-123777410D01*
X158362588Y-123899813D01*
X158362592Y-123899816D01*
X158509912Y-123990685D01*
X158509915Y-123990686D01*
X158509921Y-123990690D01*
X158618821Y-124026775D01*
X158674241Y-124045140D01*
X158680856Y-124046556D01*
X158680534Y-124048058D01*
X158737779Y-124071406D01*
X158777939Y-124128580D01*
X158784500Y-124168380D01*
X158784500Y-125614903D01*
X158764815Y-125681942D01*
X158748181Y-125702584D01*
X157657181Y-126793584D01*
X157595858Y-126827069D01*
X157526166Y-126822085D01*
X157470233Y-126780213D01*
X157445816Y-126714749D01*
X157445500Y-126705903D01*
X157445500Y-124168380D01*
X157465185Y-124101341D01*
X157517989Y-124055586D01*
X157549261Y-124047097D01*
X157549145Y-124046555D01*
X157555755Y-124045139D01*
X157555761Y-124045139D01*
X157720079Y-123990690D01*
X157867411Y-123899814D01*
X157989814Y-123777411D01*
X158009461Y-123745557D01*
X158061409Y-123698833D01*
X158130371Y-123687610D01*
X158194454Y-123715453D01*
G37*
G04 #@! TD.AperFunction*
G04 #@! TA.AperFunction,Conductor*
G36*
X109869039Y-71576685D02*
G01*
X109914794Y-71629489D01*
X109926000Y-71681000D01*
X109926000Y-86997391D01*
X109960108Y-87124687D01*
X109993054Y-87181750D01*
X110026000Y-87238814D01*
X110119186Y-87332000D01*
X110233314Y-87397892D01*
X110360608Y-87432000D01*
X110360610Y-87432000D01*
X208282390Y-87432000D01*
X208282392Y-87432000D01*
X208409686Y-87397892D01*
X208523814Y-87332000D01*
X208617000Y-87238814D01*
X208682892Y-87124686D01*
X208717000Y-86997392D01*
X208717000Y-71681000D01*
X208736685Y-71613961D01*
X208789489Y-71568206D01*
X208841000Y-71557000D01*
X215212000Y-71557000D01*
X215279039Y-71576685D01*
X215324794Y-71629489D01*
X215336000Y-71681000D01*
X215336000Y-93927000D01*
X215316315Y-93994039D01*
X215263511Y-94039794D01*
X215212000Y-94051000D01*
X170181988Y-94051000D01*
X170181597Y-94050896D01*
X170116021Y-94051000D01*
X170050591Y-94051000D01*
X170050236Y-94051047D01*
X170050237Y-94051048D01*
X170049816Y-94051104D01*
X170007857Y-94062418D01*
X169986479Y-94068183D01*
X169923311Y-94085108D01*
X169922635Y-94085388D01*
X169922632Y-94085388D01*
X169922585Y-94085407D01*
X169865852Y-94118281D01*
X169865853Y-94118282D01*
X169865831Y-94118295D01*
X169809186Y-94151000D01*
X169808900Y-94151285D01*
X169808551Y-94151488D01*
X169808523Y-94151515D01*
X169808521Y-94151517D01*
X169762484Y-94197701D01*
X169715997Y-94244188D01*
X169715879Y-94244342D01*
X169715613Y-94244689D01*
X169715522Y-94244806D01*
X169683028Y-94301294D01*
X169682930Y-94301463D01*
X169650105Y-94358317D01*
X169650077Y-94358385D01*
X169649980Y-94358621D01*
X169649806Y-94359039D01*
X169649802Y-94359055D01*
X169632971Y-94422268D01*
X169632971Y-94422269D01*
X169615998Y-94485612D01*
X169615947Y-94486001D01*
X169615924Y-94486179D01*
X169615895Y-94486392D01*
X169616000Y-94551923D01*
X169616000Y-94617392D01*
X169616102Y-94617777D01*
X169616116Y-94626179D01*
X169616117Y-94626180D01*
X169635549Y-106867812D01*
X169678163Y-133714855D01*
X169678508Y-133931803D01*
X169658930Y-133998874D01*
X169606198Y-134044712D01*
X169554508Y-134056000D01*
X146674500Y-134056000D01*
X146607461Y-134036315D01*
X146561706Y-133983511D01*
X146550500Y-133932000D01*
X146550500Y-133048322D01*
X155025001Y-133048322D01*
X155035144Y-133147607D01*
X155088452Y-133308481D01*
X155088457Y-133308492D01*
X155177424Y-133452728D01*
X155177427Y-133452732D01*
X155297267Y-133572572D01*
X155297271Y-133572575D01*
X155441507Y-133661542D01*
X155441518Y-133661547D01*
X155602393Y-133714855D01*
X155701683Y-133724999D01*
X156250000Y-133724999D01*
X156298308Y-133724999D01*
X156298322Y-133724998D01*
X156397607Y-133714855D01*
X156558481Y-133661547D01*
X156558492Y-133661542D01*
X156702728Y-133572575D01*
X156702732Y-133572572D01*
X156822572Y-133452732D01*
X156822575Y-133452728D01*
X156911542Y-133308492D01*
X156911547Y-133308481D01*
X156964855Y-133147606D01*
X156974999Y-133048322D01*
X156975000Y-133048309D01*
X156975000Y-133025000D01*
X156250000Y-133025000D01*
X156250000Y-133724999D01*
X155701683Y-133724999D01*
X155749999Y-133724998D01*
X155750000Y-133724998D01*
X155750000Y-133025000D01*
X155025001Y-133025000D01*
X155025001Y-133048322D01*
X146550500Y-133048322D01*
X146550500Y-106995108D01*
X150248500Y-106995108D01*
X150248500Y-120588891D01*
X150282608Y-120716187D01*
X150315554Y-120773250D01*
X150348500Y-120830314D01*
X150441686Y-120923500D01*
X150555814Y-120989392D01*
X150669798Y-121019933D01*
X150729458Y-121056298D01*
X150759987Y-121119145D01*
X150751692Y-121188520D01*
X150725386Y-121227389D01*
X150620183Y-121332592D01*
X150529314Y-121479912D01*
X150529309Y-121479923D01*
X150474861Y-121644237D01*
X150464500Y-121745649D01*
X150464500Y-123364335D01*
X150464501Y-123364352D01*
X150474860Y-123465760D01*
X150474861Y-123465763D01*
X150529309Y-123630076D01*
X150529314Y-123630087D01*
X150620183Y-123777407D01*
X150620186Y-123777411D01*
X150742588Y-123899813D01*
X150742592Y-123899816D01*
X150889912Y-123990685D01*
X150889915Y-123990686D01*
X150889921Y-123990690D01*
X151054239Y-124045139D01*
X151155657Y-124055500D01*
X151655903Y-124055499D01*
X151722941Y-124075183D01*
X151768696Y-124127987D01*
X151778640Y-124197146D01*
X151749615Y-124260702D01*
X151743583Y-124267180D01*
X150631286Y-125379478D01*
X150519481Y-125491282D01*
X150519480Y-125491284D01*
X150487726Y-125546284D01*
X150440423Y-125628215D01*
X150399499Y-125780943D01*
X150399499Y-125780945D01*
X150399499Y-125949046D01*
X150399500Y-125949059D01*
X150399500Y-129360613D01*
X150399499Y-129360631D01*
X150399499Y-129526337D01*
X150399498Y-129526337D01*
X150431611Y-129646182D01*
X150440423Y-129679068D01*
X150460880Y-129714500D01*
X150519479Y-129815997D01*
X150519481Y-129816000D01*
X150638349Y-129934868D01*
X150638354Y-129934872D01*
X151670001Y-130966520D01*
X151670003Y-130966521D01*
X151670007Y-130966524D01*
X151780119Y-131030096D01*
X151806933Y-131045577D01*
X151959660Y-131086501D01*
X151959662Y-131086501D01*
X152125371Y-131086501D01*
X152125387Y-131086500D01*
X153914331Y-131086500D01*
X153914347Y-131086501D01*
X153921943Y-131086501D01*
X154080054Y-131086501D01*
X154080057Y-131086501D01*
X154232785Y-131045577D01*
X154297814Y-131008032D01*
X154369716Y-130966520D01*
X154481520Y-130854716D01*
X154481520Y-130854714D01*
X154491721Y-130844514D01*
X154491724Y-130844509D01*
X154799417Y-130536816D01*
X154826349Y-130522111D01*
X154852162Y-130505523D01*
X154858362Y-130504631D01*
X154860739Y-130503334D01*
X154887097Y-130500500D01*
X154983511Y-130500500D01*
X155050550Y-130520185D01*
X155096305Y-130572989D01*
X155106249Y-130642147D01*
X155090839Y-130684656D01*
X155091051Y-130684755D01*
X155089940Y-130687135D01*
X155089048Y-130689599D01*
X155088000Y-130691296D01*
X155087996Y-130691305D01*
X155034651Y-130852290D01*
X155024500Y-130951647D01*
X155024500Y-131498337D01*
X155024501Y-131498355D01*
X155034650Y-131597707D01*
X155034651Y-131597710D01*
X155087996Y-131758694D01*
X155088001Y-131758705D01*
X155177029Y-131903040D01*
X155177032Y-131903044D01*
X155186660Y-131912672D01*
X155220145Y-131973995D01*
X155215161Y-132043687D01*
X155186663Y-132088031D01*
X155177428Y-132097265D01*
X155177424Y-132097271D01*
X155088457Y-132241507D01*
X155088452Y-132241518D01*
X155035144Y-132402393D01*
X155025000Y-132501677D01*
X155025000Y-132525000D01*
X156981000Y-132525000D01*
X157048039Y-132544685D01*
X157093794Y-132597489D01*
X157102619Y-132638057D01*
X157105000Y-132643805D01*
X157163767Y-132702572D01*
X157163771Y-132702575D01*
X157308007Y-132791542D01*
X157308018Y-132791547D01*
X157468893Y-132844855D01*
X157568183Y-132854999D01*
X158116500Y-132854999D01*
X158164808Y-132854999D01*
X158164822Y-132854998D01*
X158264107Y-132844855D01*
X158424981Y-132791547D01*
X158424992Y-132791542D01*
X158569228Y-132702575D01*
X158569232Y-132702572D01*
X158689072Y-132582732D01*
X158689075Y-132582728D01*
X158778042Y-132438492D01*
X158778047Y-132438481D01*
X158831355Y-132277606D01*
X158841499Y-132178322D01*
X158841500Y-132178309D01*
X158841500Y-132155000D01*
X158116500Y-132155000D01*
X158116500Y-132854999D01*
X157568183Y-132854999D01*
X157616499Y-132854998D01*
X157616500Y-132854998D01*
X157616500Y-132029000D01*
X157636185Y-131961961D01*
X157688989Y-131916206D01*
X157740500Y-131905000D01*
X157866500Y-131905000D01*
X157866500Y-131779000D01*
X157886185Y-131711961D01*
X157938989Y-131666206D01*
X157990500Y-131655000D01*
X158841499Y-131655000D01*
X158841499Y-131631692D01*
X158841498Y-131631677D01*
X158831355Y-131532392D01*
X158778047Y-131371518D01*
X158778042Y-131371507D01*
X158689075Y-131227271D01*
X158689072Y-131227267D01*
X158686314Y-131224509D01*
X158685025Y-131222149D01*
X158684595Y-131221605D01*
X158684688Y-131221531D01*
X158652829Y-131163186D01*
X158657813Y-131093494D01*
X158699685Y-131037561D01*
X158765149Y-131013144D01*
X158833422Y-131027996D01*
X158837096Y-131030084D01*
X158877102Y-131053744D01*
X158905106Y-131061880D01*
X159034926Y-131099597D01*
X159034929Y-131099597D01*
X159034931Y-131099598D01*
X159071806Y-131102500D01*
X159071814Y-131102500D01*
X160228186Y-131102500D01*
X160228194Y-131102500D01*
X160265069Y-131099598D01*
X160265071Y-131099597D01*
X160265073Y-131099597D01*
X160310152Y-131086500D01*
X160422898Y-131053744D01*
X160564365Y-130970081D01*
X160680581Y-130853865D01*
X160680767Y-130853549D01*
X160680977Y-130853353D01*
X160685361Y-130847702D01*
X160686272Y-130848409D01*
X160731836Y-130805866D01*
X160800577Y-130793362D01*
X160865167Y-130820006D01*
X160889355Y-130847921D01*
X160889639Y-130847702D01*
X160893679Y-130852911D01*
X160894232Y-130853548D01*
X160894419Y-130853865D01*
X160894421Y-130853867D01*
X160894423Y-130853870D01*
X161010629Y-130970076D01*
X161010635Y-130970081D01*
X161049009Y-130992775D01*
X161096692Y-131043843D01*
X161109196Y-131112585D01*
X161091427Y-131164604D01*
X161024998Y-131272300D01*
X161024996Y-131272305D01*
X160971651Y-131433290D01*
X160961500Y-131532647D01*
X160961500Y-132129337D01*
X160961501Y-132129355D01*
X160971650Y-132228707D01*
X160971651Y-132228710D01*
X161024996Y-132389694D01*
X161025001Y-132389705D01*
X161114029Y-132534040D01*
X161114032Y-132534044D01*
X161233955Y-132653967D01*
X161233959Y-132653970D01*
X161378294Y-132742998D01*
X161378297Y-132742999D01*
X161378303Y-132743003D01*
X161539292Y-132796349D01*
X161638655Y-132806500D01*
X162185344Y-132806499D01*
X162185352Y-132806498D01*
X162185355Y-132806498D01*
X162239760Y-132800940D01*
X162284708Y-132796349D01*
X162445697Y-132743003D01*
X162590044Y-132653968D01*
X162599668Y-132644343D01*
X162660987Y-132610856D01*
X162730679Y-132615835D01*
X162775034Y-132644339D01*
X162784267Y-132653572D01*
X162784271Y-132653575D01*
X162928507Y-132742542D01*
X162928518Y-132742547D01*
X163089393Y-132795855D01*
X163188683Y-132805999D01*
X163712000Y-132805999D01*
X163735308Y-132805999D01*
X163735322Y-132805998D01*
X163834607Y-132795855D01*
X163995481Y-132742547D01*
X163995492Y-132742542D01*
X164139728Y-132653575D01*
X164139732Y-132653572D01*
X164259572Y-132533732D01*
X164259575Y-132533728D01*
X164348542Y-132389492D01*
X164348547Y-132389481D01*
X164401855Y-132228606D01*
X164411999Y-132129322D01*
X164412000Y-132129309D01*
X164412000Y-132081000D01*
X163712000Y-132081000D01*
X163712000Y-132805999D01*
X163188683Y-132805999D01*
X163212000Y-132805998D01*
X163212000Y-131581000D01*
X163712000Y-131581000D01*
X164411999Y-131581000D01*
X164411999Y-131532692D01*
X164411998Y-131532677D01*
X164401855Y-131433392D01*
X164348547Y-131272518D01*
X164348542Y-131272507D01*
X164259575Y-131128271D01*
X164259572Y-131128267D01*
X164139732Y-131008427D01*
X164139728Y-131008424D01*
X163995492Y-130919457D01*
X163995481Y-130919452D01*
X163834606Y-130866144D01*
X163735322Y-130856000D01*
X163712000Y-130856000D01*
X163712000Y-131581000D01*
X163212000Y-131581000D01*
X163212000Y-130888145D01*
X163115456Y-130848976D01*
X163111254Y-130845640D01*
X163105977Y-130844659D01*
X163084174Y-130824140D01*
X163060735Y-130805532D01*
X163059003Y-130800453D01*
X163055095Y-130796775D01*
X163047846Y-130767730D01*
X163038188Y-130739400D01*
X163039477Y-130734191D01*
X163038178Y-130728985D01*
X163042998Y-130699478D01*
X163085097Y-130554573D01*
X163085098Y-130554567D01*
X163087999Y-130517701D01*
X163088000Y-130517694D01*
X163088000Y-130086306D01*
X163085098Y-130049431D01*
X163039244Y-129891602D01*
X163038074Y-129889624D01*
X163037630Y-129887874D01*
X163036147Y-129884446D01*
X163036700Y-129884206D01*
X163020896Y-129821901D01*
X163036253Y-129769603D01*
X163035684Y-129769357D01*
X163037682Y-129764738D01*
X163038081Y-129763382D01*
X163038781Y-129762197D01*
X163084600Y-129604486D01*
X163084795Y-129602001D01*
X163084795Y-129602000D01*
X162819315Y-129602000D01*
X162756194Y-129584732D01*
X162740181Y-129575262D01*
X162697898Y-129550256D01*
X162697897Y-129550255D01*
X162697896Y-129550255D01*
X162697893Y-129550254D01*
X162540073Y-129504402D01*
X162540067Y-129504401D01*
X162503201Y-129501500D01*
X162503194Y-129501500D01*
X162049000Y-129501500D01*
X162040314Y-129498949D01*
X162031353Y-129500238D01*
X162007312Y-129489259D01*
X161981961Y-129481815D01*
X161976033Y-129474974D01*
X161967797Y-129471213D01*
X161953507Y-129448978D01*
X161936206Y-129429011D01*
X161933918Y-129418496D01*
X161930023Y-129412435D01*
X161925000Y-129377500D01*
X161925000Y-129326500D01*
X161944685Y-129259461D01*
X161997489Y-129213706D01*
X162049000Y-129202500D01*
X162503186Y-129202500D01*
X162503194Y-129202500D01*
X162540069Y-129199598D01*
X162540071Y-129199597D01*
X162540073Y-129199597D01*
X162581691Y-129187505D01*
X162697898Y-129153744D01*
X162756194Y-129119268D01*
X162819315Y-129102000D01*
X163084795Y-129102000D01*
X163084795Y-129101998D01*
X163084600Y-129099511D01*
X163084599Y-129099505D01*
X163038783Y-128941806D01*
X163038781Y-128941801D01*
X163038078Y-128940612D01*
X163037810Y-128939558D01*
X163035684Y-128934644D01*
X163036476Y-128934300D01*
X163020895Y-128872888D01*
X163036509Y-128819714D01*
X163036146Y-128819557D01*
X163037420Y-128816612D01*
X163038079Y-128814369D01*
X163039242Y-128812401D01*
X163039244Y-128812398D01*
X163085098Y-128654569D01*
X163088000Y-128617694D01*
X163088000Y-128186306D01*
X163085098Y-128149431D01*
X163077890Y-128124622D01*
X163044529Y-128009794D01*
X163039244Y-127991602D01*
X162955581Y-127850135D01*
X162955578Y-127850132D01*
X162955576Y-127850129D01*
X162839370Y-127733923D01*
X162839362Y-127733917D01*
X162697896Y-127650255D01*
X162697895Y-127650254D01*
X162614904Y-127626143D01*
X162556019Y-127588536D01*
X162526813Y-127525064D01*
X162525500Y-127507067D01*
X162525500Y-124168380D01*
X162545185Y-124101341D01*
X162597989Y-124055586D01*
X162629261Y-124047097D01*
X162629145Y-124046555D01*
X162635755Y-124045139D01*
X162635761Y-124045139D01*
X162800079Y-123990690D01*
X162947411Y-123899814D01*
X163069814Y-123777411D01*
X163089755Y-123745080D01*
X163141701Y-123698357D01*
X163210663Y-123687134D01*
X163274745Y-123714977D01*
X163300831Y-123745080D01*
X163320580Y-123777098D01*
X163442901Y-123899419D01*
X163590129Y-123990232D01*
X163754338Y-124044645D01*
X163855685Y-124054999D01*
X164214999Y-124054999D01*
X164215000Y-124054998D01*
X164215000Y-122679000D01*
X164234685Y-122611961D01*
X164287489Y-122566206D01*
X164339000Y-122555000D01*
X164591000Y-122555000D01*
X164658039Y-122574685D01*
X164703794Y-122627489D01*
X164715000Y-122679000D01*
X164715000Y-124054999D01*
X165074306Y-124054999D01*
X165074320Y-124054998D01*
X165175661Y-124044645D01*
X165339870Y-123990232D01*
X165487098Y-123899419D01*
X165609419Y-123777098D01*
X165629167Y-123745082D01*
X165681114Y-123698357D01*
X165750077Y-123687134D01*
X165814159Y-123714977D01*
X165840244Y-123745081D01*
X165860183Y-123777407D01*
X165860186Y-123777411D01*
X165982588Y-123899813D01*
X165982592Y-123899816D01*
X166129912Y-123990685D01*
X166129915Y-123990686D01*
X166129921Y-123990690D01*
X166294239Y-124045139D01*
X166395657Y-124055500D01*
X167614342Y-124055499D01*
X167715761Y-124045139D01*
X167880079Y-123990690D01*
X168027411Y-123899814D01*
X168149814Y-123777411D01*
X168240690Y-123630079D01*
X168295139Y-123465761D01*
X168305500Y-123364343D01*
X168305499Y-121745658D01*
X168295139Y-121644239D01*
X168240690Y-121479921D01*
X168240686Y-121479915D01*
X168240685Y-121479912D01*
X168149816Y-121332592D01*
X168149813Y-121332588D01*
X168052406Y-121235181D01*
X168018921Y-121173858D01*
X168023905Y-121104166D01*
X168065777Y-121048233D01*
X168131241Y-121023816D01*
X168140087Y-121023500D01*
X168213890Y-121023500D01*
X168213892Y-121023500D01*
X168341186Y-120989392D01*
X168455314Y-120923500D01*
X168548500Y-120830314D01*
X168614392Y-120716186D01*
X168648500Y-120588892D01*
X168648500Y-106995108D01*
X168614392Y-106867814D01*
X168548500Y-106753686D01*
X168455314Y-106660500D01*
X168398250Y-106627554D01*
X168341187Y-106594608D01*
X168277539Y-106577554D01*
X168213892Y-106560500D01*
X150814892Y-106560500D01*
X150683108Y-106560500D01*
X150555812Y-106594608D01*
X150441686Y-106660500D01*
X150441683Y-106660502D01*
X150348502Y-106753683D01*
X150348500Y-106753686D01*
X150282608Y-106867812D01*
X150248500Y-106995108D01*
X146550500Y-106995108D01*
X146550500Y-100846947D01*
X147575000Y-100846947D01*
X147575000Y-101083052D01*
X147611934Y-101316247D01*
X147684897Y-101540802D01*
X147792087Y-101751174D01*
X147852338Y-101834104D01*
X147852340Y-101834105D01*
X148551212Y-101135233D01*
X148562482Y-101177292D01*
X148634890Y-101302708D01*
X148737292Y-101405110D01*
X148862708Y-101477518D01*
X148904765Y-101488787D01*
X148205893Y-102187658D01*
X148288828Y-102247914D01*
X148499197Y-102355102D01*
X148723752Y-102428065D01*
X148723751Y-102428065D01*
X148956948Y-102465000D01*
X149193052Y-102465000D01*
X149426247Y-102428065D01*
X149650802Y-102355102D01*
X149861163Y-102247918D01*
X149861169Y-102247914D01*
X149944104Y-102187658D01*
X149944105Y-102187658D01*
X149245233Y-101488787D01*
X149287292Y-101477518D01*
X149412708Y-101405110D01*
X149515110Y-101302708D01*
X149587518Y-101177292D01*
X149598787Y-101135233D01*
X150297658Y-101834105D01*
X150297658Y-101834104D01*
X150357914Y-101751169D01*
X150357918Y-101751163D01*
X150465102Y-101540802D01*
X150538065Y-101316247D01*
X150575000Y-101083052D01*
X150575000Y-100846947D01*
X154075000Y-100846947D01*
X154075000Y-101083052D01*
X154111934Y-101316247D01*
X154184897Y-101540802D01*
X154292087Y-101751174D01*
X154352338Y-101834104D01*
X154352340Y-101834105D01*
X155051212Y-101135233D01*
X155062482Y-101177292D01*
X155134890Y-101302708D01*
X155237292Y-101405110D01*
X155362708Y-101477518D01*
X155404765Y-101488787D01*
X154705893Y-102187658D01*
X154788828Y-102247914D01*
X154999197Y-102355102D01*
X155223752Y-102428065D01*
X155223751Y-102428065D01*
X155456948Y-102465000D01*
X155693052Y-102465000D01*
X155926247Y-102428065D01*
X156150802Y-102355102D01*
X156361163Y-102247918D01*
X156361169Y-102247914D01*
X156444104Y-102187658D01*
X156444105Y-102187658D01*
X155745233Y-101488787D01*
X155787292Y-101477518D01*
X155912708Y-101405110D01*
X156015110Y-101302708D01*
X156087518Y-101177292D01*
X156098787Y-101135234D01*
X156797658Y-101834105D01*
X156797658Y-101834104D01*
X156857914Y-101751169D01*
X156857918Y-101751163D01*
X156965102Y-101540802D01*
X157038065Y-101316247D01*
X157075000Y-101083052D01*
X157075000Y-100846947D01*
X157038065Y-100613752D01*
X156965102Y-100389197D01*
X156857914Y-100178828D01*
X156797658Y-100095894D01*
X156797658Y-100095893D01*
X156098787Y-100794765D01*
X156087518Y-100752708D01*
X156015110Y-100627292D01*
X155912708Y-100524890D01*
X155787292Y-100452482D01*
X155745234Y-100441212D01*
X156444105Y-99742340D01*
X156444104Y-99742338D01*
X156361174Y-99682087D01*
X156150802Y-99574897D01*
X155926247Y-99501934D01*
X155926248Y-99501934D01*
X155693052Y-99465000D01*
X155456948Y-99465000D01*
X155223752Y-99501934D01*
X154999197Y-99574897D01*
X154788830Y-99682084D01*
X154705894Y-99742340D01*
X155404766Y-100441212D01*
X155362708Y-100452482D01*
X155237292Y-100524890D01*
X155134890Y-100627292D01*
X155062482Y-100752708D01*
X155051212Y-100794766D01*
X154352340Y-100095894D01*
X154292084Y-100178830D01*
X154184897Y-100389197D01*
X154111934Y-100613752D01*
X154075000Y-100846947D01*
X150575000Y-100846947D01*
X150538065Y-100613752D01*
X150465102Y-100389197D01*
X150357914Y-100178828D01*
X150297658Y-100095894D01*
X150297658Y-100095893D01*
X149598787Y-100794765D01*
X149587518Y-100752708D01*
X149515110Y-100627292D01*
X149412708Y-100524890D01*
X149287292Y-100452482D01*
X149245234Y-100441212D01*
X149944105Y-99742340D01*
X149944104Y-99742339D01*
X149861174Y-99682087D01*
X149650802Y-99574897D01*
X149426247Y-99501934D01*
X149426248Y-99501934D01*
X149193052Y-99465000D01*
X148956948Y-99465000D01*
X148723752Y-99501934D01*
X148499197Y-99574897D01*
X148288830Y-99682084D01*
X148205894Y-99742340D01*
X148904766Y-100441212D01*
X148862708Y-100452482D01*
X148737292Y-100524890D01*
X148634890Y-100627292D01*
X148562482Y-100752708D01*
X148551212Y-100794766D01*
X147852340Y-100095894D01*
X147792084Y-100178830D01*
X147684897Y-100389197D01*
X147611934Y-100613752D01*
X147575000Y-100846947D01*
X146550500Y-100846947D01*
X146550500Y-96346902D01*
X147574500Y-96346902D01*
X147574500Y-96583097D01*
X147611446Y-96816368D01*
X147684433Y-97040996D01*
X147791657Y-97251433D01*
X147930483Y-97442510D01*
X148097490Y-97609517D01*
X148288567Y-97748343D01*
X148387991Y-97799002D01*
X148499003Y-97855566D01*
X148499005Y-97855566D01*
X148499008Y-97855568D01*
X148619412Y-97894689D01*
X148723631Y-97928553D01*
X148956903Y-97965500D01*
X148956908Y-97965500D01*
X149193097Y-97965500D01*
X149426368Y-97928553D01*
X149650992Y-97855568D01*
X149861433Y-97748343D01*
X150052510Y-97609517D01*
X150219517Y-97442510D01*
X150358343Y-97251433D01*
X150465568Y-97040992D01*
X150538553Y-96816368D01*
X150575500Y-96583097D01*
X150575500Y-96346902D01*
X150538553Y-96113631D01*
X150496589Y-95984480D01*
X150465568Y-95889008D01*
X150465566Y-95889005D01*
X150465566Y-95889003D01*
X150358342Y-95678566D01*
X150219517Y-95487490D01*
X150052510Y-95320483D01*
X149861433Y-95181657D01*
X149650996Y-95074433D01*
X149426368Y-95001446D01*
X149193097Y-94964500D01*
X149193092Y-94964500D01*
X148956908Y-94964500D01*
X148956903Y-94964500D01*
X148723631Y-95001446D01*
X148499003Y-95074433D01*
X148288566Y-95181657D01*
X148179550Y-95260862D01*
X148097490Y-95320483D01*
X148097488Y-95320485D01*
X148097487Y-95320485D01*
X147930485Y-95487487D01*
X147930485Y-95487488D01*
X147930483Y-95487490D01*
X147870862Y-95569550D01*
X147791657Y-95678566D01*
X147684433Y-95889003D01*
X147611446Y-96113631D01*
X147574500Y-96346902D01*
X146550500Y-96346902D01*
X146550500Y-94485610D01*
X146550500Y-94485608D01*
X146516392Y-94358314D01*
X146450500Y-94244186D01*
X146357314Y-94151000D01*
X146300250Y-94118054D01*
X146243187Y-94085108D01*
X146179539Y-94068054D01*
X146115892Y-94051000D01*
X146115891Y-94051000D01*
X103431000Y-94051000D01*
X103363961Y-94031315D01*
X103318206Y-93978511D01*
X103307000Y-93927000D01*
X103307000Y-72698635D01*
X103991000Y-72698635D01*
X103991000Y-74494370D01*
X103991001Y-74494376D01*
X103997408Y-74553983D01*
X104047702Y-74688828D01*
X104047706Y-74688835D01*
X104133952Y-74804044D01*
X104133955Y-74804047D01*
X104249164Y-74890293D01*
X104249171Y-74890297D01*
X104294118Y-74907061D01*
X104384017Y-74940591D01*
X104443627Y-74947000D01*
X104617000Y-74946999D01*
X104684039Y-74966683D01*
X104729794Y-75019487D01*
X104741000Y-75070999D01*
X104741000Y-84299830D01*
X104740999Y-84299848D01*
X104740999Y-84465554D01*
X104740998Y-84465554D01*
X104781923Y-84618285D01*
X104810858Y-84668400D01*
X104810859Y-84668404D01*
X104810860Y-84668404D01*
X104860979Y-84755214D01*
X104860981Y-84755217D01*
X104979849Y-84874085D01*
X104979855Y-84874090D01*
X111211639Y-91105874D01*
X111211649Y-91105885D01*
X111215979Y-91110215D01*
X111215980Y-91110216D01*
X111327784Y-91222020D01*
X111414595Y-91272139D01*
X111414597Y-91272141D01*
X111464713Y-91301076D01*
X111464715Y-91301077D01*
X111617442Y-91342000D01*
X111617443Y-91342000D01*
X154258903Y-91342000D01*
X154325942Y-91361685D01*
X154346584Y-91378319D01*
X163828181Y-100859916D01*
X163861666Y-100921239D01*
X163864500Y-100947597D01*
X163864500Y-103161619D01*
X163844815Y-103228658D01*
X163792011Y-103274413D01*
X163760739Y-103282903D01*
X163760855Y-103283445D01*
X163754236Y-103284861D01*
X163589923Y-103339309D01*
X163589912Y-103339314D01*
X163442592Y-103430183D01*
X163442588Y-103430186D01*
X163320185Y-103552589D01*
X163300538Y-103584443D01*
X163248590Y-103631167D01*
X163179627Y-103642388D01*
X163115545Y-103614545D01*
X163089462Y-103584443D01*
X163069814Y-103552589D01*
X162947411Y-103430186D01*
X162947407Y-103430183D01*
X162800087Y-103339314D01*
X162800081Y-103339311D01*
X162800079Y-103339310D01*
X162800076Y-103339309D01*
X162635758Y-103284859D01*
X162629144Y-103283444D01*
X162629464Y-103281945D01*
X162572204Y-103258580D01*
X162532054Y-103201398D01*
X162525500Y-103161619D01*
X162525500Y-101054059D01*
X162525501Y-101054046D01*
X162525501Y-100885945D01*
X162525501Y-100885943D01*
X162484577Y-100733215D01*
X162455639Y-100683095D01*
X162405520Y-100596284D01*
X162293716Y-100484480D01*
X162293715Y-100484479D01*
X162289385Y-100480149D01*
X162289374Y-100480139D01*
X157912590Y-96103355D01*
X157912588Y-96103352D01*
X157793717Y-95984481D01*
X157793716Y-95984480D01*
X157706904Y-95934360D01*
X157706904Y-95934359D01*
X157706900Y-95934358D01*
X157656785Y-95905423D01*
X157504057Y-95864499D01*
X157345943Y-95864499D01*
X157338347Y-95864499D01*
X157338331Y-95864500D01*
X157029068Y-95864500D01*
X156962029Y-95844815D01*
X156918583Y-95796795D01*
X156858342Y-95678566D01*
X156719517Y-95487490D01*
X156552510Y-95320483D01*
X156361433Y-95181657D01*
X156150996Y-95074433D01*
X155926368Y-95001446D01*
X155693097Y-94964500D01*
X155693092Y-94964500D01*
X155456908Y-94964500D01*
X155456903Y-94964500D01*
X155223631Y-95001446D01*
X154999003Y-95074433D01*
X154788566Y-95181657D01*
X154679550Y-95260862D01*
X154597490Y-95320483D01*
X154597488Y-95320485D01*
X154597487Y-95320485D01*
X154430485Y-95487487D01*
X154430485Y-95487488D01*
X154430483Y-95487490D01*
X154370862Y-95569550D01*
X154291657Y-95678566D01*
X154184433Y-95889003D01*
X154111446Y-96113631D01*
X154074500Y-96346902D01*
X154074500Y-96583097D01*
X154111446Y-96816368D01*
X154184433Y-97040996D01*
X154291657Y-97251433D01*
X154430483Y-97442510D01*
X154597490Y-97609517D01*
X154788567Y-97748343D01*
X154887991Y-97799002D01*
X154999003Y-97855566D01*
X154999005Y-97855566D01*
X154999008Y-97855568D01*
X155119412Y-97894689D01*
X155223631Y-97928553D01*
X155456903Y-97965500D01*
X155456908Y-97965500D01*
X155693097Y-97965500D01*
X155926368Y-97928553D01*
X156150992Y-97855568D01*
X156361433Y-97748343D01*
X156552510Y-97609517D01*
X156719517Y-97442510D01*
X156858343Y-97251433D01*
X156918583Y-97133204D01*
X156929032Y-97122140D01*
X156935355Y-97108297D01*
X156952535Y-97097255D01*
X156966558Y-97082409D01*
X156982237Y-97078167D01*
X156994133Y-97070523D01*
X157029068Y-97065500D01*
X157124903Y-97065500D01*
X157191942Y-97085185D01*
X157212584Y-97101819D01*
X161288181Y-101177416D01*
X161321666Y-101238739D01*
X161324500Y-101265097D01*
X161324500Y-103161619D01*
X161304815Y-103228658D01*
X161252011Y-103274413D01*
X161220739Y-103282903D01*
X161220855Y-103283445D01*
X161214236Y-103284861D01*
X161049923Y-103339309D01*
X161049912Y-103339314D01*
X160902592Y-103430183D01*
X160902588Y-103430186D01*
X160780185Y-103552589D01*
X160760538Y-103584443D01*
X160708590Y-103631167D01*
X160639627Y-103642388D01*
X160575545Y-103614545D01*
X160549462Y-103584443D01*
X160529814Y-103552589D01*
X160407411Y-103430186D01*
X160407407Y-103430183D01*
X160260087Y-103339314D01*
X160260081Y-103339311D01*
X160260079Y-103339310D01*
X160260076Y-103339309D01*
X160095762Y-103284861D01*
X159994344Y-103274500D01*
X158775664Y-103274500D01*
X158775647Y-103274501D01*
X158674239Y-103284860D01*
X158674236Y-103284861D01*
X158509923Y-103339309D01*
X158509912Y-103339314D01*
X158362592Y-103430183D01*
X158362588Y-103430186D01*
X158240185Y-103552589D01*
X158220538Y-103584443D01*
X158168590Y-103631167D01*
X158099627Y-103642388D01*
X158035545Y-103614545D01*
X158009462Y-103584443D01*
X157989814Y-103552589D01*
X157867411Y-103430186D01*
X157867407Y-103430183D01*
X157720087Y-103339314D01*
X157720081Y-103339311D01*
X157720079Y-103339310D01*
X157720076Y-103339309D01*
X157555762Y-103284861D01*
X157454344Y-103274500D01*
X156235664Y-103274500D01*
X156235647Y-103274501D01*
X156134239Y-103284860D01*
X156134236Y-103284861D01*
X155969923Y-103339309D01*
X155969912Y-103339314D01*
X155822592Y-103430183D01*
X155822588Y-103430186D01*
X155700185Y-103552589D01*
X155680538Y-103584443D01*
X155628590Y-103631167D01*
X155559627Y-103642388D01*
X155495545Y-103614545D01*
X155469462Y-103584443D01*
X155449814Y-103552589D01*
X155327411Y-103430186D01*
X155327407Y-103430183D01*
X155180087Y-103339314D01*
X155180081Y-103339311D01*
X155180079Y-103339310D01*
X155180076Y-103339309D01*
X155015762Y-103284861D01*
X154914344Y-103274500D01*
X153695664Y-103274500D01*
X153695647Y-103274501D01*
X153594239Y-103284860D01*
X153594236Y-103284861D01*
X153429923Y-103339309D01*
X153429912Y-103339314D01*
X153282592Y-103430183D01*
X153282588Y-103430186D01*
X153160185Y-103552589D01*
X153140538Y-103584443D01*
X153088590Y-103631167D01*
X153019627Y-103642388D01*
X152955545Y-103614545D01*
X152929462Y-103584443D01*
X152909814Y-103552589D01*
X152787411Y-103430186D01*
X152787407Y-103430183D01*
X152640087Y-103339314D01*
X152640081Y-103339311D01*
X152640079Y-103339310D01*
X152640076Y-103339309D01*
X152475762Y-103284861D01*
X152374344Y-103274500D01*
X151155664Y-103274500D01*
X151155647Y-103274501D01*
X151054239Y-103284860D01*
X151054236Y-103284861D01*
X150889923Y-103339309D01*
X150889912Y-103339314D01*
X150742592Y-103430183D01*
X150742588Y-103430186D01*
X150620186Y-103552588D01*
X150620183Y-103552592D01*
X150529314Y-103699912D01*
X150529309Y-103699923D01*
X150474861Y-103864237D01*
X150464500Y-103965649D01*
X150464500Y-105584335D01*
X150464501Y-105584352D01*
X150474860Y-105685760D01*
X150474861Y-105685763D01*
X150529309Y-105850076D01*
X150529314Y-105850087D01*
X150620183Y-105997407D01*
X150620186Y-105997411D01*
X150742588Y-106119813D01*
X150742592Y-106119816D01*
X150889912Y-106210685D01*
X150889915Y-106210686D01*
X150889921Y-106210690D01*
X151054239Y-106265139D01*
X151155657Y-106275500D01*
X152374342Y-106275499D01*
X152475761Y-106265139D01*
X152640079Y-106210690D01*
X152787411Y-106119814D01*
X152909814Y-105997411D01*
X152929461Y-105965557D01*
X152981409Y-105918833D01*
X153050371Y-105907610D01*
X153114454Y-105935453D01*
X153140539Y-105965558D01*
X153160185Y-105997410D01*
X153282588Y-106119813D01*
X153282592Y-106119816D01*
X153429912Y-106210685D01*
X153429915Y-106210686D01*
X153429921Y-106210690D01*
X153594239Y-106265139D01*
X153695657Y-106275500D01*
X154914342Y-106275499D01*
X155015761Y-106265139D01*
X155180079Y-106210690D01*
X155327411Y-106119814D01*
X155449814Y-105997411D01*
X155469461Y-105965557D01*
X155521409Y-105918833D01*
X155590371Y-105907610D01*
X155654454Y-105935453D01*
X155680539Y-105965558D01*
X155700185Y-105997410D01*
X155822588Y-106119813D01*
X155822592Y-106119816D01*
X155969912Y-106210685D01*
X155969915Y-106210686D01*
X155969921Y-106210690D01*
X156134239Y-106265139D01*
X156235657Y-106275500D01*
X157454342Y-106275499D01*
X157555761Y-106265139D01*
X157720079Y-106210690D01*
X157867411Y-106119814D01*
X157989814Y-105997411D01*
X158009461Y-105965557D01*
X158061409Y-105918833D01*
X158130371Y-105907610D01*
X158194454Y-105935453D01*
X158220539Y-105965558D01*
X158240185Y-105997410D01*
X158362588Y-106119813D01*
X158362592Y-106119816D01*
X158509912Y-106210685D01*
X158509915Y-106210686D01*
X158509921Y-106210690D01*
X158674239Y-106265139D01*
X158775657Y-106275500D01*
X159994342Y-106275499D01*
X160095761Y-106265139D01*
X160260079Y-106210690D01*
X160407411Y-106119814D01*
X160529814Y-105997411D01*
X160549461Y-105965557D01*
X160601409Y-105918833D01*
X160670371Y-105907610D01*
X160734454Y-105935453D01*
X160760539Y-105965558D01*
X160780185Y-105997410D01*
X160902588Y-106119813D01*
X160902592Y-106119816D01*
X161049912Y-106210685D01*
X161049915Y-106210686D01*
X161049921Y-106210690D01*
X161214239Y-106265139D01*
X161315657Y-106275500D01*
X162534342Y-106275499D01*
X162635761Y-106265139D01*
X162800079Y-106210690D01*
X162947411Y-106119814D01*
X163069814Y-105997411D01*
X163089461Y-105965557D01*
X163141409Y-105918833D01*
X163210371Y-105907610D01*
X163274454Y-105935453D01*
X163300539Y-105965558D01*
X163320185Y-105997410D01*
X163442588Y-106119813D01*
X163442592Y-106119816D01*
X163589912Y-106210685D01*
X163589915Y-106210686D01*
X163589921Y-106210690D01*
X163754239Y-106265139D01*
X163855657Y-106275500D01*
X165074342Y-106275499D01*
X165175761Y-106265139D01*
X165340079Y-106210690D01*
X165487411Y-106119814D01*
X165609814Y-105997411D01*
X165629461Y-105965557D01*
X165681409Y-105918833D01*
X165750371Y-105907610D01*
X165814454Y-105935453D01*
X165840539Y-105965558D01*
X165860185Y-105997410D01*
X165982588Y-106119813D01*
X165982592Y-106119816D01*
X166129912Y-106210685D01*
X166129915Y-106210686D01*
X166129921Y-106210690D01*
X166294239Y-106265139D01*
X166395657Y-106275500D01*
X167614342Y-106275499D01*
X167715761Y-106265139D01*
X167880079Y-106210690D01*
X168027411Y-106119814D01*
X168149814Y-105997411D01*
X168240690Y-105850079D01*
X168295139Y-105685761D01*
X168305500Y-105584343D01*
X168305499Y-103965658D01*
X168295139Y-103864239D01*
X168240690Y-103699921D01*
X168240686Y-103699915D01*
X168240685Y-103699912D01*
X168149816Y-103552592D01*
X168149813Y-103552588D01*
X168027411Y-103430186D01*
X168027407Y-103430183D01*
X167880087Y-103339314D01*
X167880081Y-103339311D01*
X167880079Y-103339310D01*
X167880076Y-103339309D01*
X167715758Y-103284859D01*
X167709144Y-103283444D01*
X167709464Y-103281945D01*
X167652204Y-103258580D01*
X167612054Y-103201398D01*
X167605500Y-103161619D01*
X167605500Y-93645097D01*
X167625185Y-93578058D01*
X167641819Y-93557416D01*
X169820916Y-91378319D01*
X169882239Y-91344834D01*
X169908597Y-91342000D01*
X208129831Y-91342000D01*
X208129847Y-91342001D01*
X208137443Y-91342001D01*
X208295554Y-91342001D01*
X208295557Y-91342001D01*
X208448285Y-91301077D01*
X208498404Y-91272139D01*
X208585216Y-91222020D01*
X208697020Y-91110216D01*
X208697020Y-91110214D01*
X208707228Y-91100007D01*
X208707230Y-91100004D01*
X211115006Y-88692228D01*
X211115011Y-88692224D01*
X211125214Y-88682020D01*
X211125216Y-88682020D01*
X211237020Y-88570216D01*
X211316077Y-88433284D01*
X211357000Y-88280557D01*
X211357000Y-75070999D01*
X211376685Y-75003960D01*
X211429489Y-74958205D01*
X211481000Y-74946999D01*
X211654371Y-74946999D01*
X211654372Y-74946999D01*
X211713983Y-74940591D01*
X211848831Y-74890296D01*
X211964046Y-74804046D01*
X212050296Y-74688831D01*
X212100591Y-74553983D01*
X212107000Y-74494373D01*
X212106999Y-74470479D01*
X212109830Y-74457463D01*
X212120440Y-74438025D01*
X212126679Y-74416775D01*
X212143303Y-74396143D01*
X212143308Y-74396136D01*
X212143311Y-74396134D01*
X212143318Y-74396126D01*
X212813537Y-73725908D01*
X212830575Y-73789493D01*
X212896401Y-73903507D01*
X212989493Y-73996599D01*
X213103507Y-74062425D01*
X213167090Y-74079462D01*
X212534782Y-74711769D01*
X212534782Y-74711770D01*
X212588949Y-74751124D01*
X212778282Y-74847595D01*
X212980370Y-74913257D01*
X213190254Y-74946500D01*
X213402746Y-74946500D01*
X213612627Y-74913257D01*
X213612630Y-74913257D01*
X213814717Y-74847595D01*
X214004054Y-74751122D01*
X214058216Y-74711770D01*
X214058217Y-74711770D01*
X213425908Y-74079462D01*
X213489493Y-74062425D01*
X213603507Y-73996599D01*
X213696599Y-73903507D01*
X213762425Y-73789493D01*
X213779462Y-73725908D01*
X214411770Y-74358217D01*
X214411770Y-74358216D01*
X214451122Y-74304054D01*
X214547595Y-74114717D01*
X214613257Y-73912630D01*
X214613257Y-73912627D01*
X214646500Y-73702746D01*
X214646500Y-73490253D01*
X214613257Y-73280372D01*
X214613257Y-73280369D01*
X214547595Y-73078282D01*
X214451124Y-72888949D01*
X214411770Y-72834782D01*
X214411769Y-72834782D01*
X213779462Y-73467090D01*
X213762425Y-73403507D01*
X213696599Y-73289493D01*
X213603507Y-73196401D01*
X213489493Y-73130575D01*
X213425909Y-73113537D01*
X214058216Y-72481228D01*
X214004050Y-72441875D01*
X213814717Y-72345404D01*
X213612629Y-72279742D01*
X213402746Y-72246500D01*
X213190254Y-72246500D01*
X212980372Y-72279742D01*
X212980369Y-72279742D01*
X212778282Y-72345404D01*
X212588939Y-72441880D01*
X212534782Y-72481227D01*
X212534782Y-72481228D01*
X213167091Y-73113537D01*
X213103507Y-73130575D01*
X212989493Y-73196401D01*
X212896401Y-73289493D01*
X212830575Y-73403507D01*
X212813537Y-73467091D01*
X212143318Y-72796872D01*
X212109833Y-72735549D01*
X212109830Y-72735536D01*
X212106999Y-72722515D01*
X212106999Y-72698628D01*
X212100591Y-72639017D01*
X212072426Y-72563502D01*
X212050298Y-72504173D01*
X212050293Y-72504164D01*
X211964047Y-72388955D01*
X211964044Y-72388952D01*
X211848835Y-72302706D01*
X211848828Y-72302702D01*
X211713982Y-72252408D01*
X211713983Y-72252408D01*
X211654383Y-72246001D01*
X211654381Y-72246000D01*
X211654373Y-72246000D01*
X211654364Y-72246000D01*
X209858629Y-72246000D01*
X209858623Y-72246001D01*
X209799016Y-72252408D01*
X209664171Y-72302702D01*
X209664164Y-72302706D01*
X209548955Y-72388952D01*
X209548952Y-72388955D01*
X209462706Y-72504164D01*
X209462702Y-72504171D01*
X209412408Y-72639017D01*
X209406001Y-72698616D01*
X209406000Y-72698635D01*
X209406000Y-74494370D01*
X209406001Y-74494376D01*
X209412408Y-74553983D01*
X209462702Y-74688828D01*
X209462706Y-74688835D01*
X209548952Y-74804044D01*
X209548955Y-74804047D01*
X209664164Y-74890293D01*
X209664171Y-74890297D01*
X209709118Y-74907061D01*
X209799017Y-74940591D01*
X209858627Y-74947000D01*
X210032000Y-74946999D01*
X210099039Y-74966683D01*
X210144794Y-75019487D01*
X210156000Y-75070999D01*
X210156000Y-87901403D01*
X210136315Y-87968442D01*
X210119681Y-87989084D01*
X208004084Y-90104681D01*
X207942761Y-90138166D01*
X207916403Y-90141000D01*
X169695169Y-90141000D01*
X169695153Y-90140999D01*
X169687557Y-90140999D01*
X169529443Y-90140999D01*
X169422087Y-90169765D01*
X169376710Y-90181924D01*
X169376709Y-90181925D01*
X169326596Y-90210859D01*
X169326595Y-90210860D01*
X169283189Y-90235920D01*
X169239785Y-90260979D01*
X169239782Y-90260981D01*
X166524481Y-92976282D01*
X166524479Y-92976285D01*
X166474361Y-93063094D01*
X166474359Y-93063096D01*
X166445425Y-93113209D01*
X166445424Y-93113210D01*
X166445423Y-93113215D01*
X166404499Y-93265943D01*
X166404499Y-93265945D01*
X166404499Y-93434046D01*
X166404500Y-93434059D01*
X166404500Y-103161619D01*
X166384815Y-103228658D01*
X166332011Y-103274413D01*
X166300739Y-103282903D01*
X166300855Y-103283445D01*
X166294236Y-103284861D01*
X166129923Y-103339309D01*
X166129912Y-103339314D01*
X165982592Y-103430183D01*
X165982588Y-103430186D01*
X165860185Y-103552589D01*
X165840538Y-103584443D01*
X165788590Y-103631167D01*
X165719627Y-103642388D01*
X165655545Y-103614545D01*
X165629462Y-103584443D01*
X165609814Y-103552589D01*
X165487411Y-103430186D01*
X165487407Y-103430183D01*
X165340087Y-103339314D01*
X165340081Y-103339311D01*
X165340079Y-103339310D01*
X165340076Y-103339309D01*
X165175758Y-103284859D01*
X165169144Y-103283444D01*
X165169464Y-103281945D01*
X165112204Y-103258580D01*
X165072054Y-103201398D01*
X165065500Y-103161619D01*
X165065500Y-100736560D01*
X165065501Y-100736547D01*
X165065501Y-100568444D01*
X165065501Y-100568443D01*
X165024577Y-100415716D01*
X165024164Y-100415000D01*
X164945524Y-100278790D01*
X164945518Y-100278782D01*
X155046590Y-90379855D01*
X155046588Y-90379852D01*
X154927717Y-90260981D01*
X154927716Y-90260980D01*
X154840904Y-90210860D01*
X154840904Y-90210859D01*
X154840900Y-90210858D01*
X154790785Y-90181923D01*
X154638057Y-90140999D01*
X154479943Y-90140999D01*
X154472347Y-90140999D01*
X154472331Y-90141000D01*
X111996597Y-90141000D01*
X111929558Y-90121315D01*
X111908916Y-90104681D01*
X105978319Y-84174084D01*
X105944834Y-84112761D01*
X105942000Y-84086403D01*
X105942000Y-75070999D01*
X105961685Y-75003960D01*
X106014489Y-74958205D01*
X106066000Y-74946999D01*
X106239371Y-74946999D01*
X106239372Y-74946999D01*
X106298983Y-74940591D01*
X106433831Y-74890296D01*
X106549046Y-74804046D01*
X106635296Y-74688831D01*
X106685591Y-74553983D01*
X106692000Y-74494373D01*
X106691999Y-74470479D01*
X106694830Y-74457463D01*
X106705440Y-74438025D01*
X106711679Y-74416775D01*
X106728303Y-74396143D01*
X106728308Y-74396136D01*
X106728311Y-74396134D01*
X106728318Y-74396126D01*
X107398537Y-73725908D01*
X107415575Y-73789493D01*
X107481401Y-73903507D01*
X107574493Y-73996599D01*
X107688507Y-74062425D01*
X107752090Y-74079462D01*
X107119782Y-74711769D01*
X107119782Y-74711770D01*
X107173949Y-74751124D01*
X107363282Y-74847595D01*
X107565370Y-74913257D01*
X107775254Y-74946500D01*
X107987746Y-74946500D01*
X108197627Y-74913257D01*
X108197630Y-74913257D01*
X108399717Y-74847595D01*
X108589054Y-74751122D01*
X108643216Y-74711770D01*
X108643217Y-74711770D01*
X108010908Y-74079462D01*
X108074493Y-74062425D01*
X108188507Y-73996599D01*
X108281599Y-73903507D01*
X108347425Y-73789493D01*
X108364462Y-73725909D01*
X108996770Y-74358217D01*
X108996770Y-74358216D01*
X109036122Y-74304054D01*
X109132595Y-74114717D01*
X109198257Y-73912630D01*
X109198257Y-73912627D01*
X109231500Y-73702746D01*
X109231500Y-73490253D01*
X109198257Y-73280372D01*
X109198257Y-73280369D01*
X109132595Y-73078282D01*
X109036124Y-72888949D01*
X108996770Y-72834782D01*
X108996769Y-72834782D01*
X108364462Y-73467090D01*
X108347425Y-73403507D01*
X108281599Y-73289493D01*
X108188507Y-73196401D01*
X108074493Y-73130575D01*
X108010909Y-73113537D01*
X108643216Y-72481228D01*
X108589050Y-72441875D01*
X108399717Y-72345404D01*
X108197629Y-72279742D01*
X107987746Y-72246500D01*
X107775254Y-72246500D01*
X107565372Y-72279742D01*
X107565369Y-72279742D01*
X107363282Y-72345404D01*
X107173939Y-72441880D01*
X107119782Y-72481227D01*
X107119782Y-72481228D01*
X107752091Y-73113537D01*
X107688507Y-73130575D01*
X107574493Y-73196401D01*
X107481401Y-73289493D01*
X107415575Y-73403507D01*
X107398537Y-73467091D01*
X106728318Y-72796872D01*
X106694833Y-72735549D01*
X106694830Y-72735536D01*
X106691999Y-72722515D01*
X106691999Y-72698628D01*
X106685591Y-72639017D01*
X106657426Y-72563502D01*
X106635298Y-72504173D01*
X106635293Y-72504164D01*
X106549047Y-72388955D01*
X106549044Y-72388952D01*
X106433835Y-72302706D01*
X106433828Y-72302702D01*
X106298982Y-72252408D01*
X106298983Y-72252408D01*
X106239383Y-72246001D01*
X106239381Y-72246000D01*
X106239373Y-72246000D01*
X106239364Y-72246000D01*
X104443629Y-72246000D01*
X104443623Y-72246001D01*
X104384016Y-72252408D01*
X104249171Y-72302702D01*
X104249164Y-72302706D01*
X104133955Y-72388952D01*
X104133952Y-72388955D01*
X104047706Y-72504164D01*
X104047702Y-72504171D01*
X103997408Y-72639017D01*
X103991001Y-72698616D01*
X103991000Y-72698635D01*
X103307000Y-72698635D01*
X103307000Y-71681000D01*
X103326685Y-71613961D01*
X103379489Y-71568206D01*
X103431000Y-71557000D01*
X109802000Y-71557000D01*
X109869039Y-71576685D01*
G37*
G04 #@! TD.AperFunction*
G04 #@! TD*
M02*
