G04 #@! TF.GenerationSoftware,KiCad,Pcbnew,9.0.8-1.fc43*
G04 #@! TF.CreationDate,2026-05-06T17:31:41+10:00*
G04 #@! TF.ProjectId,beatrice-pcb,62656174-7269-4636-952d-7063622e6b69,rev?*
G04 #@! TF.SameCoordinates,Original*
G04 #@! TF.FileFunction,Soldermask,Top*
G04 #@! TF.FilePolarity,Negative*
%FSLAX46Y46*%
G04 Gerber Fmt 4.6, Leading zero omitted, Abs format (unit mm)*
G04 Created by KiCad (PCBNEW 9.0.8-1.fc43) date 2026-05-06 17:31:41*
%MOMM*%
%LPD*%
G01*
G04 APERTURE LIST*
G04 Aperture macros list*
%AMRoundRect*
0 Rectangle with rounded corners*
0 $1 Rounding radius*
0 $2 $3 $4 $5 $6 $7 $8 $9 X,Y pos of 4 corners*
0 Add a 4 corners polygon primitive as box body*
4,1,4,$2,$3,$4,$5,$6,$7,$8,$9,$2,$3,0*
0 Add four circle primitives for the rounded corners*
1,1,$1+$1,$2,$3*
1,1,$1+$1,$4,$5*
1,1,$1+$1,$6,$7*
1,1,$1+$1,$8,$9*
0 Add four rect primitives between the rounded corners*
20,1,$1+$1,$2,$3,$4,$5,0*
20,1,$1+$1,$4,$5,$6,$7,0*
20,1,$1+$1,$6,$7,$8,$9,0*
20,1,$1+$1,$8,$9,$2,$3,0*%
G04 Aperture macros list end*
%ADD10RoundRect,0.078300X0.182700X-0.221700X0.182700X0.221700X-0.182700X0.221700X-0.182700X-0.221700X0*%
%ADD11RoundRect,0.045000X0.105000X-0.105000X0.105000X0.105000X-0.105000X0.105000X-0.105000X-0.105000X0*%
%ADD12C,2.000000*%
%ADD13RoundRect,0.150000X0.512500X0.150000X-0.512500X0.150000X-0.512500X-0.150000X0.512500X-0.150000X0*%
%ADD14R,1.700000X1.700000*%
%ADD15C,1.700000*%
%ADD16C,4.400000*%
%ADD17RoundRect,0.225000X-0.250000X0.225000X-0.250000X-0.225000X0.250000X-0.225000X0.250000X0.225000X0*%
%ADD18RoundRect,0.225000X0.250000X-0.225000X0.250000X0.225000X-0.250000X0.225000X-0.250000X-0.225000X0*%
%ADD19RoundRect,0.240000X-0.560000X0.760000X-0.560000X-0.760000X0.560000X-0.760000X0.560000X0.760000X0*%
%ADD20RoundRect,0.225000X-0.225000X-0.250000X0.225000X-0.250000X0.225000X0.250000X-0.225000X0.250000X0*%
G04 APERTURE END LIST*
D10*
G04 #@! TO.C,T1*
X155607000Y-127900000D03*
X154787000Y-127900000D03*
D11*
X152770000Y-127750000D03*
X152770000Y-129850000D03*
D10*
X154787000Y-129700000D03*
X155607000Y-129700000D03*
X155607000Y-128800000D03*
G04 #@! TD*
D12*
G04 #@! TO.C,SW1*
X155575000Y-100965000D03*
X149075000Y-100965000D03*
X155575000Y-96465000D03*
X149075000Y-96465000D03*
G04 #@! TD*
D13*
G04 #@! TO.C,U2*
X161925000Y-130302000D03*
X161925000Y-129352000D03*
X161925000Y-128402000D03*
X159650000Y-128402000D03*
X159650000Y-130302000D03*
G04 #@! TD*
D14*
G04 #@! TO.C,J1*
X210756500Y-73596500D03*
D15*
X213296500Y-73596500D03*
G04 #@! TD*
D16*
G04 #@! TO.C,REF\u002A\u002A*
X167005000Y-131381500D03*
G04 #@! TD*
G04 #@! TO.C,REF\u002A\u002A*
X158750000Y-90106500D03*
G04 #@! TD*
D14*
G04 #@! TO.C,J2*
X105341500Y-73596500D03*
D15*
X107881500Y-73596500D03*
G04 #@! TD*
D17*
G04 #@! TO.C,C2*
X157866500Y-130355000D03*
X157866500Y-131905000D03*
G04 #@! TD*
D18*
G04 #@! TO.C,C1*
X156000000Y-132775000D03*
X156000000Y-131225000D03*
G04 #@! TD*
D16*
G04 #@! TO.C,REF\u002A\u002A*
X149225000Y-131381500D03*
G04 #@! TD*
D19*
G04 #@! TO.C,U1*
X167005000Y-104775000D03*
X164465000Y-104775000D03*
X161925000Y-104775000D03*
X159385000Y-104775000D03*
X156845000Y-104775000D03*
X154305000Y-104775000D03*
X151765000Y-104775000D03*
X167005000Y-122555000D03*
X164465000Y-122555000D03*
X161925000Y-122555000D03*
X159385000Y-122555000D03*
X156845000Y-122555000D03*
X154305000Y-122555000D03*
X151765000Y-122555000D03*
G04 #@! TD*
D20*
G04 #@! TO.C,C3*
X161912000Y-131831000D03*
X163462000Y-131831000D03*
G04 #@! TD*
M02*
