G04 #@! TF.GenerationSoftware,KiCad,Pcbnew,9.0.8-1.fc43*
G04 #@! TF.CreationDate,2026-05-06T17:31:41+10:00*
G04 #@! TF.ProjectId,beatrice-pcb,62656174-7269-4636-952d-7063622e6b69,rev?*
G04 #@! TF.SameCoordinates,Original*
G04 #@! TF.FileFunction,Paste,Top*
G04 #@! TF.FilePolarity,Positive*
%FSLAX46Y46*%
G04 Gerber Fmt 4.6, Leading zero omitted, Abs format (unit mm)*
G04 Created by KiCad (PCBNEW 9.0.8-1.fc43) date 2026-05-06 17:31:41*
%MOMM*%
%LPD*%
G01*
G04 APERTURE LIST*
G04 Aperture macros list*
%AMRoundRect*
0 Rectangle with rounded corners*
0 $1 Rounding radius*
0 $2 $3 $4 $5 $6 $7 $8 $9 X,Y pos of 4 corners*
0 Add a 4 corners polygon primitive as box body*
4,1,4,$2,$3,$4,$5,$6,$7,$8,$9,$2,$3,0*
0 Add four circle primitives for the rounded corners*
1,1,$1+$1,$2,$3*
1,1,$1+$1,$4,$5*
1,1,$1+$1,$6,$7*
1,1,$1+$1,$8,$9*
0 Add four rect primitives between the rounded corners*
20,1,$1+$1,$2,$3,$4,$5,0*
20,1,$1+$1,$4,$5,$6,$7,0*
20,1,$1+$1,$6,$7,$8,$9,0*
20,1,$1+$1,$8,$9,$2,$3,0*%
G04 Aperture macros list end*
%ADD10C,0.100000*%
%ADD11RoundRect,0.150000X0.512500X0.150000X-0.512500X0.150000X-0.512500X-0.150000X0.512500X-0.150000X0*%
%ADD12RoundRect,0.225000X-0.250000X0.225000X-0.250000X-0.225000X0.250000X-0.225000X0.250000X0.225000X0*%
%ADD13RoundRect,0.225000X0.250000X-0.225000X0.250000X0.225000X-0.250000X0.225000X-0.250000X-0.225000X0*%
%ADD14RoundRect,0.240000X-0.560000X0.760000X-0.560000X-0.760000X0.560000X-0.760000X0.560000X0.760000X0*%
%ADD15RoundRect,0.225000X-0.225000X-0.250000X0.225000X-0.250000X0.225000X0.250000X-0.225000X0.250000X0*%
G04 APERTURE END LIST*
G04 #@! TO.C,T1*
G36*
X152637000Y-127885000D02*
G01*
X152907000Y-127885000D01*
X152907000Y-127615000D01*
X152637000Y-127615000D01*
X152637000Y-127885000D01*
G37*
G36*
X152637000Y-129985000D02*
G01*
X152907000Y-129985000D01*
X152907000Y-129715000D01*
X152637000Y-129715000D01*
X152637000Y-129985000D01*
G37*
G36*
X154576000Y-128150000D02*
G01*
X154998000Y-128150000D01*
X154998000Y-127650000D01*
X154576000Y-127650000D01*
X154576000Y-128150000D01*
G37*
G36*
X154576000Y-129950000D02*
G01*
X154998000Y-129950000D01*
X154998000Y-129450000D01*
X154576000Y-129450000D01*
X154576000Y-129950000D01*
G37*
G36*
X155396000Y-128140000D02*
G01*
X155818000Y-128140000D01*
X155818000Y-127640000D01*
X155396000Y-127640000D01*
X155396000Y-128140000D01*
G37*
G36*
X155396000Y-129050000D02*
G01*
X155818000Y-129050000D01*
X155818000Y-128550000D01*
X155396000Y-128550000D01*
X155396000Y-129050000D01*
G37*
G36*
X155396000Y-129950000D02*
G01*
X155818000Y-129950000D01*
X155818000Y-129450000D01*
X155396000Y-129450000D01*
X155396000Y-129950000D01*
G37*
D10*
X152847500Y-128800000D02*
X152847526Y-128794001D01*
X152847526Y-128794001D02*
X152847605Y-128788001D01*
X152847605Y-128788001D02*
X152847736Y-128782003D01*
X152847736Y-128782003D02*
X152847919Y-128776007D01*
X152847919Y-128776007D02*
X152848154Y-128770012D01*
X152848154Y-128770012D02*
X152848442Y-128764019D01*
X152848442Y-128764019D02*
X152848782Y-128758029D01*
X152848782Y-128758029D02*
X152849175Y-128752042D01*
X152849175Y-128752042D02*
X152849619Y-128746059D01*
X152849619Y-128746059D02*
X152850116Y-128740080D01*
X152850116Y-128740080D02*
X152850665Y-128734106D01*
X152850665Y-128734106D02*
X152851266Y-128728137D01*
X152851266Y-128728137D02*
X152851919Y-128722173D01*
X152851919Y-128722173D02*
X152852625Y-128716215D01*
X152852625Y-128716215D02*
X152853382Y-128710263D01*
X152853382Y-128710263D02*
X152854191Y-128704318D01*
X152854191Y-128704318D02*
X152855052Y-128698381D01*
X152855052Y-128698381D02*
X152855964Y-128692451D01*
X152855964Y-128692451D02*
X152856929Y-128686530D01*
X152856929Y-128686530D02*
X152857945Y-128680617D01*
X152857945Y-128680617D02*
X152859012Y-128674713D01*
X152859012Y-128674713D02*
X152860131Y-128668819D01*
X152860131Y-128668819D02*
X152861302Y-128662935D01*
X152861302Y-128662935D02*
X152862524Y-128657061D01*
X152862524Y-128657061D02*
X152863796Y-128651198D01*
X152863796Y-128651198D02*
X152865121Y-128645346D01*
X152865121Y-128645346D02*
X152866496Y-128639506D01*
X152866496Y-128639506D02*
X152867922Y-128633679D01*
X152867922Y-128633679D02*
X152869398Y-128627864D01*
X152869398Y-128627864D02*
X152870926Y-128622062D01*
X152870926Y-128622062D02*
X152872504Y-128616274D01*
X152872504Y-128616274D02*
X152874133Y-128610499D01*
X152874133Y-128610499D02*
X152875811Y-128604739D01*
X152875811Y-128604739D02*
X152877540Y-128598994D01*
X152877540Y-128598994D02*
X152879320Y-128593265D01*
X152879320Y-128593265D02*
X152881149Y-128587551D01*
X152881149Y-128587551D02*
X152883027Y-128581853D01*
X152883027Y-128581853D02*
X152884956Y-128576172D01*
X152884956Y-128576172D02*
X152886934Y-128570508D01*
X152886934Y-128570508D02*
X152888961Y-128564861D01*
X152888961Y-128564861D02*
X152891038Y-128559232D01*
X152891038Y-128559232D02*
X152893163Y-128553622D01*
X152893163Y-128553622D02*
X152895338Y-128548030D01*
X152895338Y-128548030D02*
X152897561Y-128542458D01*
X152897561Y-128542458D02*
X152899833Y-128536905D01*
X152899833Y-128536905D02*
X152902153Y-128531372D01*
X152902153Y-128531372D02*
X152904521Y-128525860D01*
X152904521Y-128525860D02*
X152906937Y-128520369D01*
X152906937Y-128520369D02*
X152909402Y-128514898D01*
X152909402Y-128514898D02*
X152911913Y-128509450D01*
X152911913Y-128509450D02*
X152914473Y-128504024D01*
X152914473Y-128504024D02*
X152917079Y-128498620D01*
X152917079Y-128498620D02*
X152919733Y-128493239D01*
X152919733Y-128493239D02*
X152922433Y-128487882D01*
X152922433Y-128487882D02*
X152925180Y-128482548D01*
X152925180Y-128482548D02*
X152927974Y-128477238D01*
X152927974Y-128477238D02*
X152930813Y-128471953D01*
X152930813Y-128471953D02*
X152933699Y-128466693D01*
X152933699Y-128466693D02*
X152936630Y-128461459D01*
X152936630Y-128461459D02*
X152939608Y-128456250D01*
X152939608Y-128456250D02*
X152942630Y-128451067D01*
X152942630Y-128451067D02*
X152945697Y-128445911D01*
X152945697Y-128445911D02*
X152948810Y-128440782D01*
X152948810Y-128440782D02*
X152951967Y-128435681D01*
X152951967Y-128435681D02*
X152955168Y-128430607D01*
X152955168Y-128430607D02*
X152958414Y-128425561D01*
X152958414Y-128425561D02*
X152961703Y-128420543D01*
X152961703Y-128420543D02*
X152965037Y-128415555D01*
X152965037Y-128415555D02*
X152968413Y-128410596D01*
X152968413Y-128410596D02*
X152971833Y-128405666D01*
X152971833Y-128405666D02*
X152975296Y-128400767D01*
X152975296Y-128400767D02*
X152978801Y-128395898D01*
X152978801Y-128395898D02*
X152982348Y-128391059D01*
X152982348Y-128391059D02*
X152985938Y-128386252D01*
X152985938Y-128386252D02*
X152989570Y-128381477D01*
X152989570Y-128381477D02*
X152993243Y-128376733D01*
X152993243Y-128376733D02*
X152996957Y-128372021D01*
X152996957Y-128372021D02*
X153000712Y-128367342D01*
X153000712Y-128367342D02*
X153004508Y-128362696D01*
X153004508Y-128362696D02*
X153008344Y-128358084D01*
X153008344Y-128358084D02*
X153012221Y-128353504D01*
X153012221Y-128353504D02*
X153016137Y-128348959D01*
X153016137Y-128348959D02*
X153020093Y-128344449D01*
X153020093Y-128344449D02*
X153024088Y-128339973D01*
X153024088Y-128339973D02*
X153028122Y-128335532D01*
X153028122Y-128335532D02*
X153032194Y-128331126D01*
X153032194Y-128331126D02*
X153036305Y-128326756D01*
X153036305Y-128326756D02*
X153040454Y-128322422D01*
X153040454Y-128322422D02*
X153044640Y-128318125D01*
X153044640Y-128318125D02*
X153048864Y-128313864D01*
X153048864Y-128313864D02*
X153053125Y-128309640D01*
X153053125Y-128309640D02*
X153057422Y-128305454D01*
X153057422Y-128305454D02*
X153061756Y-128301305D01*
X153061756Y-128301305D02*
X153066126Y-128297194D01*
X153066126Y-128297194D02*
X153070532Y-128293122D01*
X153070532Y-128293122D02*
X153074973Y-128289088D01*
X153074973Y-128289088D02*
X153079449Y-128285093D01*
X153079449Y-128285093D02*
X153083959Y-128281137D01*
X153083959Y-128281137D02*
X153088504Y-128277221D01*
X153088504Y-128277221D02*
X153093084Y-128273344D01*
X153093084Y-128273344D02*
X153097696Y-128269508D01*
X153097696Y-128269508D02*
X153102342Y-128265712D01*
X153102342Y-128265712D02*
X153107021Y-128261957D01*
X153107021Y-128261957D02*
X153111733Y-128258243D01*
X153111733Y-128258243D02*
X153116477Y-128254570D01*
X153116477Y-128254570D02*
X153121252Y-128250938D01*
X153121252Y-128250938D02*
X153126059Y-128247348D01*
X153126059Y-128247348D02*
X153130898Y-128243801D01*
X153130898Y-128243801D02*
X153135767Y-128240296D01*
X153135767Y-128240296D02*
X153140666Y-128236833D01*
X153140666Y-128236833D02*
X153145596Y-128233413D01*
X153145596Y-128233413D02*
X153150555Y-128230037D01*
X153150555Y-128230037D02*
X153155543Y-128226703D01*
X153155543Y-128226703D02*
X153160561Y-128223414D01*
X153160561Y-128223414D02*
X153165607Y-128220168D01*
X153165607Y-128220168D02*
X153170681Y-128216967D01*
X153170681Y-128216967D02*
X153175782Y-128213810D01*
X153175782Y-128213810D02*
X153180911Y-128210697D01*
X153180911Y-128210697D02*
X153186067Y-128207630D01*
X153186067Y-128207630D02*
X153191250Y-128204608D01*
X153191250Y-128204608D02*
X153196459Y-128201630D01*
X153196459Y-128201630D02*
X153201693Y-128198699D01*
X153201693Y-128198699D02*
X153206953Y-128195813D01*
X153206953Y-128195813D02*
X153212238Y-128192974D01*
X153212238Y-128192974D02*
X153217548Y-128190180D01*
X153217548Y-128190180D02*
X153222882Y-128187433D01*
X153222882Y-128187433D02*
X153228239Y-128184733D01*
X153228239Y-128184733D02*
X153233620Y-128182079D01*
X153233620Y-128182079D02*
X153239024Y-128179473D01*
X153239024Y-128179473D02*
X153244450Y-128176913D01*
X153244450Y-128176913D02*
X153249898Y-128174402D01*
X153249898Y-128174402D02*
X153255369Y-128171937D01*
X153255369Y-128171937D02*
X153260860Y-128169521D01*
X153260860Y-128169521D02*
X153266372Y-128167153D01*
X153266372Y-128167153D02*
X153271905Y-128164833D01*
X153271905Y-128164833D02*
X153277458Y-128162561D01*
X153277458Y-128162561D02*
X153283030Y-128160338D01*
X153283030Y-128160338D02*
X153288622Y-128158163D01*
X153288622Y-128158163D02*
X153294232Y-128156038D01*
X153294232Y-128156038D02*
X153299861Y-128153961D01*
X153299861Y-128153961D02*
X153305508Y-128151934D01*
X153305508Y-128151934D02*
X153311172Y-128149956D01*
X153311172Y-128149956D02*
X153316853Y-128148027D01*
X153316853Y-128148027D02*
X153322551Y-128146149D01*
X153322551Y-128146149D02*
X153328265Y-128144320D01*
X153328265Y-128144320D02*
X153333994Y-128142540D01*
X153333994Y-128142540D02*
X153339739Y-128140811D01*
X153339739Y-128140811D02*
X153345499Y-128139133D01*
X153345499Y-128139133D02*
X153351274Y-128137504D01*
X153351274Y-128137504D02*
X153357062Y-128135926D01*
X153357062Y-128135926D02*
X153362864Y-128134398D01*
X153362864Y-128134398D02*
X153368679Y-128132922D01*
X153368679Y-128132922D02*
X153374506Y-128131496D01*
X153374506Y-128131496D02*
X153380346Y-128130121D01*
X153380346Y-128130121D02*
X153386198Y-128128796D01*
X153386198Y-128128796D02*
X153392061Y-128127524D01*
X153392061Y-128127524D02*
X153397935Y-128126302D01*
X153397935Y-128126302D02*
X153403819Y-128125131D01*
X153403819Y-128125131D02*
X153409713Y-128124012D01*
X153409713Y-128124012D02*
X153415617Y-128122945D01*
X153415617Y-128122945D02*
X153421530Y-128121929D01*
X153421530Y-128121929D02*
X153427451Y-128120964D01*
X153427451Y-128120964D02*
X153433381Y-128120052D01*
X153433381Y-128120052D02*
X153439318Y-128119191D01*
X153439318Y-128119191D02*
X153445263Y-128118382D01*
X153445263Y-128118382D02*
X153451215Y-128117625D01*
X153451215Y-128117625D02*
X153457173Y-128116919D01*
X153457173Y-128116919D02*
X153463137Y-128116266D01*
X153463137Y-128116266D02*
X153469106Y-128115665D01*
X153469106Y-128115665D02*
X153475080Y-128115116D01*
X153475080Y-128115116D02*
X153481059Y-128114619D01*
X153481059Y-128114619D02*
X153487042Y-128114175D01*
X153487042Y-128114175D02*
X153493029Y-128113782D01*
X153493029Y-128113782D02*
X153499019Y-128113442D01*
X153499019Y-128113442D02*
X153505012Y-128113154D01*
X153505012Y-128113154D02*
X153511007Y-128112919D01*
X153511007Y-128112919D02*
X153517003Y-128112736D01*
X153517003Y-128112736D02*
X153523001Y-128112605D01*
X153523001Y-128112605D02*
X153529001Y-128112526D01*
X153529001Y-128112526D02*
X153535000Y-128112500D01*
X153535000Y-128112500D02*
X153540999Y-128112526D01*
X153540999Y-128112526D02*
X153546999Y-128112605D01*
X153546999Y-128112605D02*
X153552997Y-128112736D01*
X153552997Y-128112736D02*
X153555075Y-128112793D01*
X153929422Y-128236895D02*
X153934321Y-128240358D01*
X153934321Y-128240358D02*
X153939189Y-128243864D01*
X153939189Y-128243864D02*
X153944027Y-128247412D01*
X153944027Y-128247412D02*
X153948834Y-128251003D01*
X153948834Y-128251003D02*
X153953609Y-128254635D01*
X153953609Y-128254635D02*
X153958352Y-128258309D01*
X153958352Y-128258309D02*
X153963063Y-128262024D01*
X153963063Y-128262024D02*
X153967741Y-128265780D01*
X153967741Y-128265780D02*
X153972387Y-128269577D01*
X153972387Y-128269577D02*
X153976999Y-128273414D01*
X153976999Y-128273414D02*
X153981577Y-128277291D01*
X153981577Y-128277291D02*
X153986122Y-128281208D01*
X153986122Y-128281208D02*
X153990632Y-128285164D01*
X153990632Y-128285164D02*
X153995107Y-128289160D01*
X153995107Y-128289160D02*
X153999548Y-128293195D01*
X153999548Y-128293195D02*
X154003953Y-128297268D01*
X154003953Y-128297268D02*
X154008322Y-128301379D01*
X154008322Y-128301379D02*
X154012655Y-128305529D01*
X154012655Y-128305529D02*
X154016952Y-128309716D01*
X154016952Y-128309716D02*
X154021212Y-128313940D01*
X154021212Y-128313940D02*
X154025435Y-128318202D01*
X154025435Y-128318202D02*
X154029621Y-128322500D01*
X154029621Y-128322500D02*
X154033769Y-128326834D01*
X154033769Y-128326834D02*
X154037879Y-128331205D01*
X154037879Y-128331205D02*
X154041951Y-128335611D01*
X154041951Y-128335611D02*
X154045984Y-128340053D01*
X154045984Y-128340053D02*
X154049978Y-128344529D01*
X154049978Y-128344529D02*
X154053933Y-128349041D01*
X154053933Y-128349041D02*
X154057849Y-128353586D01*
X154057849Y-128353586D02*
X154061725Y-128358166D01*
X154061725Y-128358166D02*
X154065560Y-128362779D01*
X154065560Y-128362779D02*
X154069356Y-128367426D01*
X154069356Y-128367426D02*
X154073110Y-128372105D01*
X154073110Y-128372105D02*
X154076824Y-128376818D01*
X154076824Y-128376818D02*
X154080496Y-128381562D01*
X154080496Y-128381562D02*
X154084127Y-128386338D01*
X154084127Y-128386338D02*
X154087716Y-128391146D01*
X154087716Y-128391146D02*
X154091262Y-128395985D01*
X154091262Y-128395985D02*
X154094767Y-128400854D01*
X154094767Y-128400854D02*
X154098229Y-128405754D01*
X154098229Y-128405754D02*
X154101648Y-128410684D01*
X154101648Y-128410684D02*
X154105024Y-128415644D01*
X154105024Y-128415644D02*
X154108356Y-128420633D01*
X154108356Y-128420633D02*
X154111645Y-128425651D01*
X154111645Y-128425651D02*
X154114889Y-128430697D01*
X154114889Y-128430697D02*
X154118090Y-128435772D01*
X154118090Y-128435772D02*
X154121246Y-128440874D01*
X154121246Y-128440874D02*
X154124358Y-128446004D01*
X154124358Y-128446004D02*
X154127425Y-128451160D01*
X154127425Y-128451160D02*
X154130446Y-128456343D01*
X154130446Y-128456343D02*
X154133423Y-128461553D01*
X154133423Y-128461553D02*
X154136353Y-128466788D01*
X154136353Y-128466788D02*
X154139238Y-128472048D01*
X154139238Y-128472048D02*
X154142077Y-128477333D01*
X154142077Y-128477333D02*
X154144870Y-128482643D01*
X154144870Y-128482643D02*
X154147616Y-128487977D01*
X154147616Y-128487977D02*
X154150315Y-128493335D01*
X154150315Y-128493335D02*
X154152968Y-128498717D01*
X154152968Y-128498717D02*
X154155574Y-128504121D01*
X154155574Y-128504121D02*
X154158132Y-128509548D01*
X154158132Y-128509548D02*
X154160643Y-128514996D01*
X154160643Y-128514996D02*
X154163106Y-128520467D01*
X154163106Y-128520467D02*
X154165522Y-128525959D01*
X154165522Y-128525959D02*
X154167889Y-128531471D01*
X154167889Y-128531471D02*
X154170208Y-128537005D01*
X154170208Y-128537005D02*
X154172479Y-128542558D01*
X154172479Y-128542558D02*
X154174702Y-128548131D01*
X154174702Y-128548131D02*
X154176875Y-128553723D01*
X154176875Y-128553723D02*
X154179000Y-128559333D01*
X154179000Y-128559333D02*
X154181075Y-128564962D01*
X154181075Y-128564962D02*
X154183102Y-128570609D01*
X154183102Y-128570609D02*
X154185079Y-128576274D01*
X154185079Y-128576274D02*
X154187007Y-128581955D01*
X154187007Y-128581955D02*
X154188885Y-128587653D01*
X154188885Y-128587653D02*
X154190713Y-128593367D01*
X154190713Y-128593367D02*
X154192491Y-128599097D01*
X154192491Y-128599097D02*
X154194219Y-128604843D01*
X154194219Y-128604843D02*
X154195897Y-128610603D01*
X154195897Y-128610603D02*
X154197525Y-128616377D01*
X154197525Y-128616377D02*
X154199102Y-128622166D01*
X154199102Y-128622166D02*
X154200628Y-128627968D01*
X154200628Y-128627968D02*
X154202104Y-128633783D01*
X154202104Y-128633783D02*
X154203529Y-128639611D01*
X154203529Y-128639611D02*
X154204904Y-128645451D01*
X154204904Y-128645451D02*
X154206227Y-128651303D01*
X154206227Y-128651303D02*
X154207499Y-128657166D01*
X154207499Y-128657166D02*
X154208720Y-128663040D01*
X154208720Y-128663040D02*
X154209889Y-128668925D01*
X154209889Y-128668925D02*
X154211007Y-128674819D01*
X154211007Y-128674819D02*
X154212074Y-128680723D01*
X154212074Y-128680723D02*
X154213089Y-128686636D01*
X154213089Y-128686636D02*
X154214053Y-128692558D01*
X154214053Y-128692558D02*
X154214964Y-128698488D01*
X154214964Y-128698488D02*
X154215824Y-128704425D01*
X154215824Y-128704425D02*
X154216632Y-128710370D01*
X154216632Y-128710370D02*
X154217389Y-128716322D01*
X154217389Y-128716322D02*
X154218093Y-128722280D01*
X154218093Y-128722280D02*
X154218745Y-128728244D01*
X154218745Y-128728244D02*
X154219345Y-128734213D01*
X154219345Y-128734213D02*
X154219893Y-128740188D01*
X154219893Y-128740188D02*
X154220389Y-128746167D01*
X154220389Y-128746167D02*
X154220833Y-128752150D01*
X154220833Y-128752150D02*
X154221224Y-128758137D01*
X154221224Y-128758137D02*
X154221563Y-128764127D01*
X154221563Y-128764127D02*
X154221850Y-128770119D01*
X154221850Y-128770119D02*
X154222085Y-128776114D01*
X154222085Y-128776114D02*
X154222267Y-128782111D01*
X154222267Y-128782111D02*
X154222397Y-128788109D01*
X154222397Y-128788109D02*
X154222475Y-128794108D01*
X154222475Y-128794108D02*
X154222500Y-128800108D01*
X154222500Y-128800108D02*
X154222473Y-128806107D01*
X154222473Y-128806107D02*
X154222393Y-128812106D01*
X154222393Y-128812106D02*
X154222262Y-128818104D01*
X154222262Y-128818104D02*
X154222077Y-128824101D01*
X154222077Y-128824101D02*
X154221841Y-128830096D01*
X154221841Y-128830096D02*
X154221552Y-128836088D01*
X154221552Y-128836088D02*
X154221211Y-128842078D01*
X154221211Y-128842078D02*
X154220818Y-128848065D01*
X154220818Y-128848065D02*
X154220372Y-128854048D01*
X154220372Y-128854048D02*
X154219874Y-128860027D01*
X154219874Y-128860027D02*
X154219325Y-128866001D01*
X154219325Y-128866001D02*
X154218723Y-128871970D01*
X154218723Y-128871970D02*
X154218068Y-128877934D01*
X154218068Y-128877934D02*
X154217362Y-128883892D01*
X154217362Y-128883892D02*
X154216604Y-128889844D01*
X154216604Y-128889844D02*
X154215794Y-128895788D01*
X154215794Y-128895788D02*
X154214932Y-128901725D01*
X154214932Y-128901725D02*
X154214019Y-128907655D01*
X154214019Y-128907655D02*
X154213054Y-128913576D01*
X154213054Y-128913576D02*
X154212037Y-128919489D01*
X154212037Y-128919489D02*
X154210968Y-128925393D01*
X154210968Y-128925393D02*
X154209848Y-128931287D01*
X154209848Y-128931287D02*
X154208677Y-128937171D01*
X154208677Y-128937171D02*
X154207454Y-128943045D01*
X154207454Y-128943045D02*
X154206180Y-128948907D01*
X154206180Y-128948907D02*
X154204855Y-128954759D01*
X154204855Y-128954759D02*
X154203479Y-128960598D01*
X154203479Y-128960598D02*
X154202052Y-128966426D01*
X154202052Y-128966426D02*
X154200575Y-128972240D01*
X154200575Y-128972240D02*
X154199046Y-128978042D01*
X154199046Y-128978042D02*
X154197467Y-128983830D01*
X154197467Y-128983830D02*
X154195838Y-128989604D01*
X154195838Y-128989604D02*
X154194158Y-128995364D01*
X154194158Y-128995364D02*
X154192428Y-129001109D01*
X154192428Y-129001109D02*
X154190648Y-129006838D01*
X154190648Y-129006838D02*
X154188818Y-129012552D01*
X154188818Y-129012552D02*
X154186938Y-129018249D01*
X154186938Y-129018249D02*
X154185009Y-129023930D01*
X154185009Y-129023930D02*
X154183030Y-129029594D01*
X154183030Y-129029594D02*
X154181002Y-129035240D01*
X154181002Y-129035240D02*
X154178924Y-129040868D01*
X154178924Y-129040868D02*
X154176798Y-129046478D01*
X154176798Y-129046478D02*
X154174623Y-129052070D01*
X154174623Y-129052070D02*
X154172399Y-129057642D01*
X154172399Y-129057642D02*
X154170126Y-129063194D01*
X154170126Y-129063194D02*
X154167805Y-129068727D01*
X154167805Y-129068727D02*
X154165436Y-129074239D01*
X154165436Y-129074239D02*
X154163019Y-129079730D01*
X154163019Y-129079730D02*
X154160554Y-129085200D01*
X154160554Y-129085200D02*
X154158041Y-129090648D01*
X154158041Y-129090648D02*
X154155481Y-129096074D01*
X154155481Y-129096074D02*
X154152874Y-129101477D01*
X154152874Y-129101477D02*
X154150219Y-129106857D01*
X154150219Y-129106857D02*
X154147518Y-129112214D01*
X154147518Y-129112214D02*
X154144770Y-129117548D01*
X154144770Y-129117548D02*
X154141976Y-129122857D01*
X154141976Y-129122857D02*
X154139135Y-129128141D01*
X154139135Y-129128141D02*
X154136249Y-129133401D01*
X154136249Y-129133401D02*
X154133317Y-129138635D01*
X154133317Y-129138635D02*
X154130339Y-129143843D01*
X154130339Y-129143843D02*
X154127315Y-129149025D01*
X154127315Y-129149025D02*
X154124247Y-129154181D01*
X154124247Y-129154181D02*
X154121134Y-129159310D01*
X154121134Y-129159310D02*
X154117976Y-129164411D01*
X154117976Y-129164411D02*
X154114774Y-129169484D01*
X154114774Y-129169484D02*
X154111527Y-129174530D01*
X154111527Y-129174530D02*
X154108237Y-129179546D01*
X154108237Y-129179546D02*
X154104903Y-129184534D01*
X154104903Y-129184534D02*
X154101526Y-129189493D01*
X154101526Y-129189493D02*
X154098105Y-129194422D01*
X154098105Y-129194422D02*
X154094642Y-129199321D01*
X154094642Y-129199321D02*
X154091136Y-129204189D01*
X154091136Y-129204189D02*
X154087588Y-129209027D01*
X154087588Y-129209027D02*
X154086348Y-129210696D01*
X153769936Y-129446112D02*
X153764289Y-129448138D01*
X153764289Y-129448138D02*
X153758624Y-129450114D01*
X153758624Y-129450114D02*
X153752943Y-129452041D01*
X153752943Y-129452041D02*
X153747244Y-129453918D01*
X153747244Y-129453918D02*
X153741530Y-129455745D01*
X153741530Y-129455745D02*
X153735800Y-129457522D01*
X153735800Y-129457522D02*
X153730054Y-129459250D01*
X153730054Y-129459250D02*
X153724294Y-129460927D01*
X153724294Y-129460927D02*
X153718519Y-129462553D01*
X153718519Y-129462553D02*
X153712730Y-129464130D01*
X153712730Y-129464130D02*
X153706928Y-129465655D01*
X153706928Y-129465655D02*
X153701112Y-129467130D01*
X153701112Y-129467130D02*
X153695284Y-129468555D01*
X153695284Y-129468555D02*
X153689444Y-129469928D01*
X153689444Y-129469928D02*
X153683592Y-129471250D01*
X153683592Y-129471250D02*
X153677729Y-129472521D01*
X153677729Y-129472521D02*
X153671854Y-129473741D01*
X153671854Y-129473741D02*
X153665970Y-129474910D01*
X153665970Y-129474910D02*
X153660075Y-129476027D01*
X153660075Y-129476027D02*
X153654171Y-129477093D01*
X153654171Y-129477093D02*
X153648258Y-129478107D01*
X153648258Y-129478107D02*
X153642336Y-129479069D01*
X153642336Y-129479069D02*
X153636406Y-129479980D01*
X153636406Y-129479980D02*
X153630468Y-129480839D01*
X153630468Y-129480839D02*
X153624523Y-129481646D01*
X153624523Y-129481646D02*
X153618571Y-129482402D01*
X153618571Y-129482402D02*
X153612613Y-129483105D01*
X153612613Y-129483105D02*
X153606649Y-129483756D01*
X153606649Y-129483756D02*
X153600680Y-129484355D01*
X153600680Y-129484355D02*
X153594705Y-129484903D01*
X153594705Y-129484903D02*
X153588726Y-129485398D01*
X153588726Y-129485398D02*
X153582743Y-129485840D01*
X153582743Y-129485840D02*
X153576756Y-129486231D01*
X153576756Y-129486231D02*
X153570766Y-129486569D01*
X153570766Y-129486569D02*
X153564773Y-129486855D01*
X153564773Y-129486855D02*
X153558778Y-129487089D01*
X153558778Y-129487089D02*
X153552781Y-129487270D01*
X153552781Y-129487270D02*
X153546783Y-129487399D01*
X153546783Y-129487399D02*
X153540784Y-129487476D01*
X153540784Y-129487476D02*
X153534785Y-129487500D01*
X153534785Y-129487500D02*
X153528785Y-129487472D01*
X153528785Y-129487472D02*
X153522786Y-129487391D01*
X153522786Y-129487391D02*
X153516788Y-129487259D01*
X153516788Y-129487259D02*
X153510791Y-129487074D01*
X153510791Y-129487074D02*
X153504797Y-129486836D01*
X153504797Y-129486836D02*
X153498804Y-129486547D01*
X153498804Y-129486547D02*
X153492814Y-129486204D01*
X153492814Y-129486204D02*
X153486828Y-129485810D01*
X153486828Y-129485810D02*
X153480845Y-129485364D01*
X153480845Y-129485364D02*
X153474866Y-129484865D01*
X153474866Y-129484865D02*
X153468892Y-129484314D01*
X153468892Y-129484314D02*
X153462923Y-129483711D01*
X153462923Y-129483711D02*
X153456959Y-129483056D01*
X153456959Y-129483056D02*
X153451001Y-129482349D01*
X153451001Y-129482349D02*
X153445050Y-129481590D01*
X153445050Y-129481590D02*
X153439105Y-129480779D01*
X153439105Y-129480779D02*
X153433168Y-129479917D01*
X153433168Y-129479917D02*
X153427239Y-129479002D01*
X153427239Y-129479002D02*
X153421317Y-129478036D01*
X153421317Y-129478036D02*
X153415405Y-129477018D01*
X153415405Y-129477018D02*
X153409501Y-129475948D01*
X153409501Y-129475948D02*
X153403607Y-129474828D01*
X153403607Y-129474828D02*
X153397724Y-129473655D01*
X153397724Y-129473655D02*
X153391850Y-129472432D01*
X153391850Y-129472432D02*
X153385988Y-129471157D01*
X153385988Y-129471157D02*
X153380136Y-129469831D01*
X153380136Y-129469831D02*
X153374297Y-129468454D01*
X153374297Y-129468454D02*
X153368470Y-129467026D01*
X153368470Y-129467026D02*
X153362655Y-129465548D01*
X153362655Y-129465548D02*
X153356854Y-129464018D01*
X153356854Y-129464018D02*
X153351066Y-129462438D01*
X153351066Y-129462438D02*
X153345292Y-129460808D01*
X153345292Y-129460808D02*
X153339533Y-129459127D01*
X153339533Y-129459127D02*
X153333789Y-129457397D01*
X153333789Y-129457397D02*
X153328059Y-129455616D01*
X153328059Y-129455616D02*
X153322346Y-129453785D01*
X153322346Y-129453785D02*
X153316649Y-129451904D01*
X153316649Y-129451904D02*
X153310968Y-129449974D01*
X153310968Y-129449974D02*
X153305305Y-129447994D01*
X153305305Y-129447994D02*
X153299659Y-129445965D01*
X153299659Y-129445965D02*
X153294031Y-129443887D01*
X153294031Y-129443887D02*
X153288421Y-129441759D01*
X153288421Y-129441759D02*
X153282830Y-129439583D01*
X153282830Y-129439583D02*
X153277258Y-129437358D01*
X153277258Y-129437358D02*
X153271706Y-129435085D01*
X153271706Y-129435085D02*
X153266174Y-129432763D01*
X153266174Y-129432763D02*
X153260663Y-129430393D01*
X153260663Y-129430393D02*
X153255172Y-129427975D01*
X153255172Y-129427975D02*
X153249702Y-129425509D01*
X153249702Y-129425509D02*
X153244255Y-129422996D01*
X153244255Y-129422996D02*
X153238829Y-129420435D01*
X153238829Y-129420435D02*
X153233426Y-129417826D01*
X153233426Y-129417826D02*
X153228046Y-129415171D01*
X153228046Y-129415171D02*
X153222690Y-129412469D01*
X153222690Y-129412469D02*
X153217357Y-129409720D01*
X153217357Y-129409720D02*
X153212048Y-129406925D01*
X153212048Y-129406925D02*
X153206764Y-129404084D01*
X153206764Y-129404084D02*
X153201505Y-129401197D01*
X153201505Y-129401197D02*
X153196271Y-129398263D01*
X153196271Y-129398263D02*
X153191064Y-129395285D01*
X153191064Y-129395285D02*
X153185882Y-129392261D01*
X153185882Y-129392261D02*
X153180727Y-129389192D01*
X153180727Y-129389192D02*
X153175599Y-129386078D01*
X153175599Y-129386078D02*
X153170498Y-129382919D01*
X153170498Y-129382919D02*
X153165425Y-129379716D01*
X153165425Y-129379716D02*
X153160380Y-129376469D01*
X153160380Y-129376469D02*
X153155364Y-129373178D01*
X153155364Y-129373178D02*
X153150376Y-129369843D01*
X153150376Y-129369843D02*
X153145418Y-129366465D01*
X153145418Y-129366465D02*
X153140490Y-129363043D01*
X153140490Y-129363043D02*
X153135591Y-129359579D01*
X153135591Y-129359579D02*
X153130723Y-129356073D01*
X153130723Y-129356073D02*
X153125886Y-129352523D01*
X153125886Y-129352523D02*
X153121080Y-129348932D01*
X153121080Y-129348932D02*
X153116306Y-129345299D01*
X153116306Y-129345299D02*
X153111563Y-129341625D01*
X153111563Y-129341625D02*
X153106853Y-129337909D01*
X153106853Y-129337909D02*
X153102175Y-129334152D01*
X153102175Y-129334152D02*
X153097530Y-129330355D01*
X153097530Y-129330355D02*
X153092919Y-129326517D01*
X153092919Y-129326517D02*
X153088341Y-129322639D01*
X153088341Y-129322639D02*
X153083797Y-129318722D01*
X153083797Y-129318722D02*
X153079287Y-129314764D01*
X153079287Y-129314764D02*
X153074813Y-129310768D01*
X153074813Y-129310768D02*
X153070373Y-129306733D01*
X153070373Y-129306733D02*
X153065969Y-129302659D01*
X153065969Y-129302659D02*
X153061600Y-129298547D01*
X153061600Y-129298547D02*
X153057267Y-129294396D01*
X153057267Y-129294396D02*
X153052971Y-129290209D01*
X153052971Y-129290209D02*
X153048712Y-129285984D01*
X153048712Y-129285984D02*
X153044489Y-129281721D01*
X153044489Y-129281721D02*
X153040304Y-129277423D01*
X153040304Y-129277423D02*
X153036157Y-129273088D01*
X153036157Y-129273088D02*
X153032047Y-129268716D01*
X153032047Y-129268716D02*
X153027976Y-129264309D01*
X153027976Y-129264309D02*
X153023944Y-129259867D01*
X153023944Y-129259867D02*
X153019950Y-129255390D01*
X153019950Y-129255390D02*
X153015996Y-129250878D01*
X153015996Y-129250878D02*
X153012081Y-129246332D01*
X153012081Y-129246332D02*
X153008206Y-129241751D01*
X153008206Y-129241751D02*
X153004371Y-129237138D01*
X153004371Y-129237138D02*
X153000577Y-129232490D01*
X153000577Y-129232490D02*
X152996823Y-129227810D01*
X152996823Y-129227810D02*
X152993110Y-129223098D01*
X152993110Y-129223098D02*
X152989439Y-129218353D01*
X152989439Y-129218353D02*
X152985809Y-129213576D01*
X152985809Y-129213576D02*
X152982220Y-129208768D01*
X152982220Y-129208768D02*
X152978674Y-129203928D01*
X152978674Y-129203928D02*
X152975171Y-129199058D01*
X152975171Y-129199058D02*
X152971709Y-129194157D01*
X152971709Y-129194157D02*
X152968291Y-129189227D01*
X152968291Y-129189227D02*
X152964916Y-129184267D01*
X152964916Y-129184267D02*
X152961585Y-129179277D01*
X152961585Y-129179277D02*
X152958297Y-129174259D01*
X152958297Y-129174259D02*
X152955053Y-129169212D01*
X152955053Y-129169212D02*
X152951853Y-129164137D01*
X152951853Y-129164137D02*
X152948697Y-129159034D01*
X152948697Y-129159034D02*
X152945587Y-129153904D01*
X152945587Y-129153904D02*
X152942521Y-129148747D01*
X152942521Y-129148747D02*
X152939500Y-129143563D01*
X152939500Y-129143563D02*
X152936524Y-129138354D01*
X152936524Y-129138354D02*
X152933595Y-129133118D01*
X152933595Y-129133118D02*
X152930711Y-129127857D01*
X152930711Y-129127857D02*
X152927872Y-129122572D01*
X152927872Y-129122572D02*
X152925081Y-129117261D01*
X152925081Y-129117261D02*
X152922335Y-129111927D01*
X152922335Y-129111927D02*
X152919637Y-129106568D01*
X152919637Y-129106568D02*
X152916985Y-129101187D01*
X152916985Y-129101187D02*
X152914380Y-129095782D01*
X152914380Y-129095782D02*
X152911822Y-129090355D01*
X152911822Y-129090355D02*
X152909312Y-129084906D01*
X152909312Y-129084906D02*
X152906850Y-129079435D01*
X152906850Y-129079435D02*
X152904435Y-129073942D01*
X152904435Y-129073942D02*
X152902069Y-129068429D01*
X152902069Y-129068429D02*
X152899750Y-129062896D01*
X152899750Y-129062896D02*
X152897480Y-129057342D01*
X152897480Y-129057342D02*
X152895259Y-129051769D01*
X152895259Y-129051769D02*
X152893086Y-129046177D01*
X152893086Y-129046177D02*
X152890962Y-129040566D01*
X152890962Y-129040566D02*
X152888888Y-129034936D01*
X152888888Y-129034936D02*
X152886862Y-129029289D01*
X152886862Y-129029289D02*
X152884886Y-129023624D01*
X152884886Y-129023624D02*
X152882959Y-129017943D01*
X152882959Y-129017943D02*
X152882303Y-129015970D01*
G04 #@! TD*
D11*
G04 #@! TO.C,U2*
X161925000Y-130302000D03*
X161925000Y-129352000D03*
X161925000Y-128402000D03*
X159650000Y-128402000D03*
X159650000Y-130302000D03*
G04 #@! TD*
D12*
G04 #@! TO.C,C2*
X157866500Y-130355000D03*
X157866500Y-131905000D03*
G04 #@! TD*
D13*
G04 #@! TO.C,C1*
X156000000Y-132775000D03*
X156000000Y-131225000D03*
G04 #@! TD*
D14*
G04 #@! TO.C,U1*
X167005000Y-104775000D03*
X164465000Y-104775000D03*
X161925000Y-104775000D03*
X159385000Y-104775000D03*
X156845000Y-104775000D03*
X154305000Y-104775000D03*
X151765000Y-104775000D03*
X167005000Y-122555000D03*
X164465000Y-122555000D03*
X161925000Y-122555000D03*
X159385000Y-122555000D03*
X156845000Y-122555000D03*
X154305000Y-122555000D03*
X151765000Y-122555000D03*
G04 #@! TD*
D15*
G04 #@! TO.C,C3*
X161912000Y-131831000D03*
X163462000Y-131831000D03*
G04 #@! TD*
M02*
