%TF.GenerationSoftware,KiCad,Pcbnew,9.0.8-1.fc43*%
%TF.CreationDate,2026-05-06T17:13:14+10:00*%
%TF.ProjectId,beatrice-pcb,62656174-7269-4636-952d-7063622e6b69,rev?*%
%TF.SameCoordinates,Original*%
%TF.FileFunction,Legend,Top*%
%TF.FilePolarity,Positive*%
%FSLAX46Y46*%
G04 Gerber Fmt 4.6, Leading zero omitted, Abs format (unit mm)*
G04 Created by KiCad (PCBNEW 9.0.8-1.fc43) date 2026-05-06 17:13:14*
%MOMM*%
%LPD*%
G01*
G04 APERTURE LIST*
%ADD10C,0.150000*%
%ADD11C,0.100000*%
%ADD12C,0.120000*%
G04 APERTURE END LIST*
D10*
X147256667Y-103912200D02*
X147399524Y-103959819D01*
X147399524Y-103959819D02*
X147637619Y-103959819D01*
X147637619Y-103959819D02*
X147732857Y-103912200D01*
X147732857Y-103912200D02*
X147780476Y-103864580D01*
X147780476Y-103864580D02*
X147828095Y-103769342D01*
X147828095Y-103769342D02*
X147828095Y-103674104D01*
X147828095Y-103674104D02*
X147780476Y-103578866D01*
X147780476Y-103578866D02*
X147732857Y-103531247D01*
X147732857Y-103531247D02*
X147637619Y-103483628D01*
X147637619Y-103483628D02*
X147447143Y-103436009D01*
X147447143Y-103436009D02*
X147351905Y-103388390D01*
X147351905Y-103388390D02*
X147304286Y-103340771D01*
X147304286Y-103340771D02*
X147256667Y-103245533D01*
X147256667Y-103245533D02*
X147256667Y-103150295D01*
X147256667Y-103150295D02*
X147304286Y-103055057D01*
X147304286Y-103055057D02*
X147351905Y-103007438D01*
X147351905Y-103007438D02*
X147447143Y-102959819D01*
X147447143Y-102959819D02*
X147685238Y-102959819D01*
X147685238Y-102959819D02*
X147828095Y-103007438D01*
X148161429Y-102959819D02*
X148399524Y-103959819D01*
X148399524Y-103959819D02*
X148590000Y-103245533D01*
X148590000Y-103245533D02*
X148780476Y-103959819D01*
X148780476Y-103959819D02*
X149018572Y-102959819D01*
X149923333Y-103959819D02*
X149351905Y-103959819D01*
X149637619Y-103959819D02*
X149637619Y-102959819D01*
X149637619Y-102959819D02*
X149542381Y-103102676D01*
X149542381Y-103102676D02*
X149447143Y-103197914D01*
X149447143Y-103197914D02*
X149351905Y-103245533D01*
X159744580Y-132818166D02*
X159792200Y-132865785D01*
X159792200Y-132865785D02*
X159839819Y-133008642D01*
X159839819Y-133008642D02*
X159839819Y-133103880D01*
X159839819Y-133103880D02*
X159792200Y-133246737D01*
X159792200Y-133246737D02*
X159696961Y-133341975D01*
X159696961Y-133341975D02*
X159601723Y-133389594D01*
X159601723Y-133389594D02*
X159411247Y-133437213D01*
X159411247Y-133437213D02*
X159268390Y-133437213D01*
X159268390Y-133437213D02*
X159077914Y-133389594D01*
X159077914Y-133389594D02*
X158982676Y-133341975D01*
X158982676Y-133341975D02*
X158887438Y-133246737D01*
X158887438Y-133246737D02*
X158839819Y-133103880D01*
X158839819Y-133103880D02*
X158839819Y-133008642D01*
X158839819Y-133008642D02*
X158887438Y-132865785D01*
X158887438Y-132865785D02*
X158935057Y-132818166D01*
X158935057Y-132437213D02*
X158887438Y-132389594D01*
X158887438Y-132389594D02*
X158839819Y-132294356D01*
X158839819Y-132294356D02*
X158839819Y-132056261D01*
X158839819Y-132056261D02*
X158887438Y-131961023D01*
X158887438Y-131961023D02*
X158935057Y-131913404D01*
X158935057Y-131913404D02*
X159030295Y-131865785D01*
X159030295Y-131865785D02*
X159125533Y-131865785D01*
X159125533Y-131865785D02*
X159268390Y-131913404D01*
X159268390Y-131913404D02*
X159839819Y-132484832D01*
X159839819Y-132484832D02*
X159839819Y-131865785D01*
X154929580Y-132166666D02*
X154977200Y-132214285D01*
X154977200Y-132214285D02*
X155024819Y-132357142D01*
X155024819Y-132357142D02*
X155024819Y-132452380D01*
X155024819Y-132452380D02*
X154977200Y-132595237D01*
X154977200Y-132595237D02*
X154881961Y-132690475D01*
X154881961Y-132690475D02*
X154786723Y-132738094D01*
X154786723Y-132738094D02*
X154596247Y-132785713D01*
X154596247Y-132785713D02*
X154453390Y-132785713D01*
X154453390Y-132785713D02*
X154262914Y-132738094D01*
X154262914Y-132738094D02*
X154167676Y-132690475D01*
X154167676Y-132690475D02*
X154072438Y-132595237D01*
X154072438Y-132595237D02*
X154024819Y-132452380D01*
X154024819Y-132452380D02*
X154024819Y-132357142D01*
X154024819Y-132357142D02*
X154072438Y-132214285D01*
X154072438Y-132214285D02*
X154120057Y-132166666D01*
X155024819Y-131214285D02*
X155024819Y-131785713D01*
X155024819Y-131499999D02*
X154024819Y-131499999D01*
X154024819Y-131499999D02*
X154167676Y-131595237D01*
X154167676Y-131595237D02*
X154262914Y-131690475D01*
X154262914Y-131690475D02*
X154310533Y-131785713D01*
D11*
X160427580Y-112903095D02*
X159618057Y-112903095D01*
X159618057Y-112903095D02*
X159522819Y-112950714D01*
X159522819Y-112950714D02*
X159475200Y-112998333D01*
X159475200Y-112998333D02*
X159427580Y-113093571D01*
X159427580Y-113093571D02*
X159427580Y-113284047D01*
X159427580Y-113284047D02*
X159475200Y-113379285D01*
X159475200Y-113379285D02*
X159522819Y-113426904D01*
X159522819Y-113426904D02*
X159618057Y-113474523D01*
X159618057Y-113474523D02*
X160427580Y-113474523D01*
X159427580Y-114474523D02*
X159427580Y-113903095D01*
X159427580Y-114188809D02*
X160427580Y-114188809D01*
X160427580Y-114188809D02*
X160284723Y-114093571D01*
X160284723Y-114093571D02*
X160189485Y-113998333D01*
X160189485Y-113998333D02*
X160141866Y-113903095D01*
D10*
X162632333Y-133610580D02*
X162584714Y-133658200D01*
X162584714Y-133658200D02*
X162441857Y-133705819D01*
X162441857Y-133705819D02*
X162346619Y-133705819D01*
X162346619Y-133705819D02*
X162203762Y-133658200D01*
X162203762Y-133658200D02*
X162108524Y-133562961D01*
X162108524Y-133562961D02*
X162060905Y-133467723D01*
X162060905Y-133467723D02*
X162013286Y-133277247D01*
X162013286Y-133277247D02*
X162013286Y-133134390D01*
X162013286Y-133134390D02*
X162060905Y-132943914D01*
X162060905Y-132943914D02*
X162108524Y-132848676D01*
X162108524Y-132848676D02*
X162203762Y-132753438D01*
X162203762Y-132753438D02*
X162346619Y-132705819D01*
X162346619Y-132705819D02*
X162441857Y-132705819D01*
X162441857Y-132705819D02*
X162584714Y-132753438D01*
X162584714Y-132753438D02*
X162632333Y-132801057D01*
X162965667Y-132705819D02*
X163584714Y-132705819D01*
X163584714Y-132705819D02*
X163251381Y-133086771D01*
X163251381Y-133086771D02*
X163394238Y-133086771D01*
X163394238Y-133086771D02*
X163489476Y-133134390D01*
X163489476Y-133134390D02*
X163537095Y-133182009D01*
X163537095Y-133182009D02*
X163584714Y-133277247D01*
X163584714Y-133277247D02*
X163584714Y-133515342D01*
X163584714Y-133515342D02*
X163537095Y-133610580D01*
X163537095Y-133610580D02*
X163489476Y-133658200D01*
X163489476Y-133658200D02*
X163394238Y-133705819D01*
X163394238Y-133705819D02*
X163108524Y-133705819D01*
X163108524Y-133705819D02*
X163013286Y-133658200D01*
X163013286Y-133658200D02*
X162965667Y-133610580D01*
D12*
%TO.C,SW1*%
X148825000Y-97965000D02*
X148825000Y-99465000D01*
X150075000Y-101965000D02*
X154575000Y-101965000D01*
X154575000Y-95465000D02*
X150075000Y-95465000D01*
X155825000Y-99465000D02*
X155825000Y-97965000D01*
%TO.C,U2*%
X159877500Y-127792000D02*
X161697500Y-127792000D01*
X159877500Y-127842000D02*
X159877500Y-127792000D01*
X159877500Y-129742000D02*
X159877500Y-128962000D01*
X159877500Y-130912000D02*
X159877500Y-130862000D01*
X161697500Y-127792000D02*
X161697500Y-127842000D01*
X161697500Y-130862000D02*
X161697500Y-130912000D01*
X161697500Y-130912000D02*
X159877500Y-130912000D01*
X162477500Y-131192000D02*
X161997500Y-131192000D01*
X162237500Y-130862000D01*
X162477500Y-131192000D01*
G36*
X162477500Y-131192000D02*
G01*
X161997500Y-131192000D01*
X162237500Y-130862000D01*
X162477500Y-131192000D01*
G37*
%TO.C,J1*%
X209376500Y-74976500D02*
X209376500Y-73596500D01*
X210756500Y-74976500D02*
X209376500Y-74976500D01*
X212026500Y-72216500D02*
X214676500Y-72216500D01*
X212026500Y-74976500D02*
X212026500Y-72216500D01*
X212026500Y-74976500D02*
X214676500Y-74976500D01*
X214676500Y-74976500D02*
X214676500Y-72216500D01*
%TO.C,J2*%
X103961500Y-74976500D02*
X103961500Y-73596500D01*
X105341500Y-74976500D02*
X103961500Y-74976500D01*
X106611500Y-72216500D02*
X109261500Y-72216500D01*
X106611500Y-74976500D02*
X106611500Y-72216500D01*
X106611500Y-74976500D02*
X109261500Y-74976500D01*
X109261500Y-74976500D02*
X109261500Y-72216500D01*
%TO.C,C2*%
X157356500Y-130989420D02*
X157356500Y-131270580D01*
X158376500Y-130989420D02*
X158376500Y-131270580D01*
%TO.C,C1*%
X156510000Y-132140580D02*
X156510000Y-131859420D01*
X155490000Y-132140580D02*
X155490000Y-131859420D01*
%TO.C,C3*%
X162546420Y-131321000D02*
X162827580Y-131321000D01*
X162546420Y-132341000D02*
X162827580Y-132341000D01*
%TD*%
M02*
