M48
; DRILL file {KiCad 9.0.8-1.fc43} date 2026-05-06T17:13:12+1000
; FORMAT={-:-/ absolute / metric / decimal}
; #@! TF.CreationDate,2026-05-06T17:13:12+10:00
; #@! TF.GenerationSoftware,Kicad,Pcbnew,9.0.8-1.fc43
; #@! TF.FileFunction,Plated,1,2,PTH
FMAT,2
METRIC
; #@! TA.AperFunction,Plated,PTH,ViaDrill
T1C0.300
; #@! TA.AperFunction,Plated,PTH,ComponentDrill
T2C1.000
; #@! TA.AperFunction,Plated,PTH,ComponentDrill
T3C1.100
; #@! TA.AperFunction,Plated,PTH,ComponentDrill
T4C2.200
%
G90
G05
T1
X105.346Y-91.376
X107.886Y-79.311
X129.476Y-89.471
X148.7Y-125.5
X149.161Y-93.281
X149.669Y-113.411
X155.6Y-125.4
X157.988Y-125.857
X158.115Y-128.841
X160.147Y-126.873
X161.29Y-99.06
X161.29Y-133.286
X161.925Y-92.71
X163.766Y-88.201
X164.338Y-125.984
X166.243Y-126.111
X169.1Y-102.235
X212.661Y-92.646
T2
X105.341Y-73.596
X107.881Y-73.596
X210.756Y-73.596
X213.296Y-73.596
T3
X149.075Y-96.465
X149.075Y-100.965
X155.575Y-96.465
X155.575Y-100.965
T4
X149.225Y-131.381
X158.75Y-90.106
X167.005Y-131.381
M30
